<?xml version="1.0" encoding="UTF-8"?>
<svg version="1.1" xmlns="http://www.w3.org/2000/svg" width="500" height="500">
<path d="M0 0 C1 1 1 1 1.08984375 2.78515625 C1.03957031 3.53667969 0.98929687 4.28820312 0.9375 5.0625 C0.90527344 5.79597656 0.87304688 6.52945313 0.83984375 7.28515625 C-1.19085589 13.8495109 -5.25878494 17.91370121 -11.23828125 21.125 C-13.25301732 22.10418933 -15.27837147 23.06176001 -17.3125 24 C-18.38121338 24.5141748 -19.44992676 25.02834961 -20.55102539 25.55810547 C-25.26517672 27.81702123 -30.01023347 30.00776308 -34.7578125 32.1953125 C-49.75128596 39.10812178 -63.60023244 47.35216736 -77 57 C-76.35675781 57.28609131 -75.71351563 57.57218262 -75.05078125 57.86694336 C-43.06198531 72.15295253 -13.07722845 86.88016104 1 121 C5.8050067 135.57153498 1.87135484 149.81107727 -4.6875 163.1875 C-20.48388633 193.95996909 -49.06359847 213.5820639 -79.15917969 228.58251953 C-81.57553269 229.78820409 -83.98179999 231.01026173 -86.3828125 232.24609375 C-90.22976321 234.21798278 -94.10402873 236.12693689 -98 238 C-98.77214844 238.37157227 -99.54429687 238.74314453 -100.33984375 239.12597656 C-116.20448232 246.69323591 -132.47851211 253.02117447 -149 259 C-150.14162598 259.41701172 -151.28325195 259.83402344 -152.45947266 260.26367188 C-192.7013243 274.82927621 -235.81549557 280.39278926 -278.47460938 280.31567383 C-282.10056904 280.31252124 -285.72570314 280.33605996 -289.3515625 280.36132812 C-330.94237384 280.47393038 -384.01345352 275.38746046 -415.45703125 244.59375 C-417.74259052 242.13297749 -419.8901406 239.61258388 -422 237 C-422.67675781 236.16984375 -423.35351562 235.3396875 -424.05078125 234.484375 C-436.48630949 218.35440828 -444.45451063 198.56037066 -443 178 C-441.94870014 171.19357028 -439.62716543 165.09652392 -436.875 158.8125 C-436.47466553 157.89339844 -436.07433105 156.97429687 -435.66186523 156.02734375 C-415.09773846 109.62707034 -374.6958247 85.51442569 -329.0625 67.75 C-314.1080548 62.06214106 -298.85203229 56.91366063 -283 54.5 C-277.03230334 53.51156163 -273.78032245 52.00620794 -269.60546875 47.65625 C-267.36308042 45.34293454 -264.99852754 44.11573118 -262 43 C-259 44 -259 44 -257.61328125 46.28515625 C-256.96939453 47.65994141 -256.96939453 47.65994141 -256.3125 49.0625 C-255.87550781 49.98160156 -255.43851563 50.90070313 -254.98828125 51.84765625 C-254.66214844 52.55792969 -254.33601562 53.26820313 -254 54 C-253.58492187 53.52691406 -253.16984375 53.05382812 -252.7421875 52.56640625 C-240.47381215 39.3997189 -223.44903908 31.78025179 -206.60693359 26.27490234 C-204.60167361 25.61735097 -202.60365346 24.94043014 -200.60546875 24.26171875 C-199.31288382 23.83217662 -198.01992775 23.40374933 -196.7265625 22.9765625 C-195.57752441 22.59580566 -194.42848633 22.21504883 -193.24462891 21.82275391 C-190.01977917 21.00501549 -187.31044292 20.84146469 -184 21 C-181.21482685 29.35551946 -184.4390055 36.72788374 -188.1328125 44.33203125 C-188.41898438 44.88246094 -188.70515625 45.43289062 -189 46 C-187.824375 45.690625 -186.64875 45.38125 -185.4375 45.0625 C-160.59104008 39.54541205 -133.20979995 43.57265929 -108.75073242 49.14306641 C-106.93085815 49.54404541 -106.93085815 49.54404541 -105.07421875 49.953125 C-103.99744873 50.20223633 -102.92067871 50.45134766 -101.8112793 50.70800781 C-97.24162982 51.18263228 -95.44442071 49.35180954 -91.92578125 46.56640625 C-90.72095338 45.56558646 -89.51655296 44.56425193 -88.3125 43.5625 C-66.68752422 25.9786353 -29.38982874 -1.30621461 0 0 Z M-194 30 C-191.03 30.495 -191.03 30.495 -188 31 C-187.67 29.35 -187.34 27.7 -187 26 C-190.13323425 26 -191.68020784 28.04649081 -194 30 Z M-205.8515625 29.1171875 C-206.61202881 29.38950195 -207.37249512 29.66181641 -208.15600586 29.94238281 C-208.97077393 30.25014648 -209.78554199 30.55791016 -210.625 30.875 C-211.46877197 31.19307617 -212.31254395 31.51115234 -213.18188477 31.83886719 C-227.53273778 37.40477072 -239.21291738 43.93409134 -250 55 C-250.76183594 55.69996094 -251.52367187 56.39992188 -252.30859375 57.12109375 C-254.33115705 58.98366122 -254.33115705 58.98366122 -254.25 62.25 C-254.1675 63.1575 -254.085 64.065 -254 65 C-252.82780457 64.21654285 -251.66236332 63.42297164 -250.5 62.625 C-249.8503125 62.18414062 -249.200625 61.74328125 -248.53125 61.2890625 C-248.0259375 60.86367187 -247.520625 60.43828125 -247 60 C-247 59.34 -247 58.68 -247 58 C-246.44828125 57.90589844 -245.8965625 57.81179687 -245.328125 57.71484375 C-242.37594435 56.8083856 -240.27278656 55.33656482 -237.75 53.5625 C-236.41195312 52.63630859 -236.41195312 52.63630859 -235.046875 51.69140625 C-234.37140625 51.13324219 -233.6959375 50.57507813 -233 50 C-233 49.34 -233 48.68 -233 48 C-232.42580322 47.8868042 -231.85160645 47.7736084 -231.26000977 47.65698242 C-228.7650471 46.93169944 -227.01434782 45.90490194 -224.83984375 44.48828125 C-224.0506958 43.98006836 -223.26154785 43.47185547 -222.44848633 42.94824219 C-221.61986084 42.40844727 -220.79123535 41.86865234 -219.9375 41.3125 C-213.09028652 36.91244319 -206.24845608 32.7138157 -199 29 C-202.27454372 27.90848543 -202.77235251 28.01203829 -205.8515625 29.1171875 Z M-198 31 C-198.66 31.66 -199.32 32.32 -200 33 C-198.68 33 -197.36 33 -196 33 C-196 32.34 -196 31.68 -196 31 C-196.66 31 -197.32 31 -198 31 Z M-196 33 C-195.34 33.33 -194.68 33.66 -194 34 C-194 34.99 -194 35.98 -194 37 C-195.175625 36.814375 -196.35125 36.62875 -197.5625 36.4375 C-201.54829691 35.94104843 -205.05379718 36.11411774 -209 37 C-209.33 37.66 -209.66 38.32 -210 39 C-203.07 39.495 -203.07 39.495 -196 40 C-196 41.32 -196 42.64 -196 44 C-196.99 43.34 -197.98 42.68 -199 42 C-206.82564853 40.83672792 -214.48450809 43.020999 -222 45 C-222 45.33 -222 45.66 -222 46 C-220.56720703 45.96519531 -220.56720703 45.96519531 -219.10546875 45.9296875 C-211.09294312 45.81784766 -203.87555619 46.2738507 -196 48 C-193.69 44.04 -191.38 40.08 -189 36 C-189.99 35.01 -190.98 34.02 -192 33 C-193.32 33 -194.64 33 -196 33 Z M-272 53 C-274.51011291 56.10808995 -275.8500241 59.08139762 -276.5 63.0625 C-275.53841676 68.71180153 -271.49669908 72.64381816 -268 77 C-267.59007812 76.18015625 -267.18015625 75.3603125 -266.7578125 74.515625 C-265.171875 71.34375 -263.5859375 68.171875 -262 65 C-261.66742188 64.23171875 -261.33484375 63.4634375 -260.9921875 62.671875 C-260 61 -260 61 -257 60 C-257.28482368 58.58194169 -257.57818144 57.16559621 -257.875 55.75 C-258.11863281 54.56664062 -258.11863281 54.56664062 -258.3671875 53.359375 C-258.99150075 51.03168856 -259.84838542 49.10968048 -261 47 C-265.7489218 47 -268.58989045 49.87806872 -272 53 Z M-99.44921875 57.625 C-102 60 -102 60 -104.61328125 62.07421875 C-109.45976437 65.98471986 -113.29633845 70.88652612 -116.8125 76 C-117.534375 76.99 -118.25625 77.98 -119 79 C-119.66 79 -120.32 79 -121 79 C-119.50886094 74.08747438 -116.66983826 71.16274088 -113.1875 67.5625 C-112.13789285 66.46099633 -111.08970366 65.3581397 -110.04296875 64.25390625 C-109.53556152 63.71910645 -109.0281543 63.18430664 -108.50537109 62.63330078 C-106.23446184 60.16940476 -104.11817178 57.59583714 -102 55 C-129.87987369 48.11264101 -164.72585877 40.57528626 -193 50 C-195.97202012 53.62960076 -195.97202012 53.62960076 -197 58 C-190.07 58.495 -190.07 58.495 -183 59 C-182 65 -182 65 -182 68 C-184.51083114 66.74458443 -184.87125446 65.49936512 -186 63 C-187.98 63 -189.96 63 -192 63 C-192 64.32 -192 65.64 -192 67 C-193.65 66.34 -195.3 65.68 -197 65 C-197.33 65.66 -197.66 66.32 -198 67 C-200.30965848 68.05352843 -202.6429774 69.05719096 -205 70 C-205 69.01 -205 68.02 -205 67 C-204.34 67 -203.68 67 -203 67 C-203 66.01 -203 65.02 -203 64 C-205.97 64.99 -205.97 64.99 -209 66 C-208.01 68.97 -208.01 68.97 -207 72 C-209.4375 71.625 -209.4375 71.625 -212 71 C-212.33 70.34 -212.66 69.68 -213 69 C-213.99 69.33 -214.98 69.66 -216 70 C-215.01 71.485 -215.01 71.485 -214 73 C-213.39799238 76.41523556 -213.40414145 79.58337987 -214 83 C-218.35142253 88.52748267 -224.33176506 89.54058203 -231 91 C-230.01 91.66 -229.02 92.32 -228 93 C-228.4811491 98.77378925 -230.18467181 102.95859836 -233 108 C-231.7511573 109.5833253 -231.7511573 109.5833253 -230 111 C-228.68 111 -227.36 111 -226 111 C-226.33 111.66 -226.66 112.32 -227 113 C-229.0625 113.625 -229.0625 113.625 -231 114 C-231.66 113.01 -232.32 112.02 -233 111 C-238.06705945 111.46064177 -241.09467467 114.02936153 -245 117 C-245.99 117.66 -246.98 118.32 -248 119 C-247.01 121.31 -246.02 123.62 -245 126 C-245.78375 125.525625 -246.5675 125.05125 -247.375 124.5625 C-250.560616 122.39951735 -250.560616 122.39951735 -254.125 122.4375 C-254.74375 122.623125 -255.3625 122.80875 -256 123 C-255.7009375 122.29101562 -255.401875 121.58203125 -255.09375 120.8515625 C-253.67183623 117.14443017 -252.75058446 113.3691666 -251.78125 109.5234375 C-251 107 -251 107 -249 104 C-248.60612212 101.67612053 -248.26513915 99.34206251 -248 97 C-247.16855469 96.80664062 -246.33710938 96.61328125 -245.48046875 96.4140625 C-244.39378906 96.15367187 -243.30710938 95.89328125 -242.1875 95.625 C-241.10855469 95.36976563 -240.02960938 95.11453125 -238.91796875 94.8515625 C-235.84466657 94.11267119 -235.84466657 94.11267119 -233 92 C-233.56396484 92.01047363 -234.12792969 92.02094727 -234.70898438 92.03173828 C-237.30594281 92.07374478 -239.90282939 92.09946602 -242.5 92.125 C-243.386875 92.14175781 -244.27375 92.15851563 -245.1875 92.17578125 C-250.82323788 92.2172205 -255.59300232 91.60441286 -261 90 C-261 91.32 -261 92.64 -261 94 C-261.99 94 -262.98 94 -264 94 C-263.67 92.02 -263.34 90.04 -263 88 C-264.67488528 86.26352052 -264.67488528 86.26352052 -267 85 C-269.71475105 85.56911789 -269.71475105 85.56911789 -272 87 C-272.33 87.66 -272.66 88.32 -273 89 C-271.02 89 -269.04 89 -267 89 C-267 89.99 -267 90.98 -267 92 C-267.66 92 -268.32 92 -269 92 C-268.67 92.99 -268.34 93.98 -268 95 C-267.360625 95.144375 -266.72125 95.28875 -266.0625 95.4375 C-264 96 -264 96 -262.75 98.0625 C-262.5025 98.701875 -262.255 99.34125 -262 100 C-262.99 100 -263.98 100 -265 100 C-265 99.34 -265 98.68 -265 98 C-267.97 97.505 -267.97 97.505 -271 97 C-271 97.66 -271 98.32 -271 99 C-271.99 99 -272.98 99 -274 99 C-274 98.01 -274 97.02 -274 96 C-272.68662604 94.9739266 -271.35335895 93.97272675 -270 93 C-270 92.34 -270 91.68 -270 91 C-272.97 90.505 -272.97 90.505 -276 90 C-276.33 91.65 -276.66 93.3 -277 95 C-277.99 95 -278.98 95 -280 95 C-280.33 94.34 -280.66 93.68 -281 93 C-281.5534764 95.07553648 -282 96.84365964 -282 99 C-282.66 99 -283.32 99 -284 99 C-284.33 97.68 -284.66 96.36 -285 95 C-285.87398438 95.30744141 -285.87398438 95.30744141 -286.765625 95.62109375 C-293.50503996 97.83577571 -299.92947835 98.64768878 -307 99 C-307 100.65 -307 102.3 -307 104 C-306.030625 104.474375 -305.06125 104.94875 -304.0625 105.4375 C-301 107 -301 107 -300 108 C-297.32941149 108.14115161 -294.67567762 108.04247107 -292 108 C-292.66 106.35 -293.32 104.7 -294 103 C-290.94894899 104.017017 -290.17353952 104.82646048 -288 107 C-287.34 107 -286.68 107 -286 107 C-285.67 106.34 -285.34 105.68 -285 105 C-282.4375 104.375 -282.4375 104.375 -280 104 C-280.33 102.35 -280.66 100.7 -281 99 C-279.35 99 -277.7 99 -276 99 C-276 99.99 -276 100.98 -276 102 C-274.68 102.33 -273.36 102.66 -272 103 C-272 102.34 -272 101.68 -272 101 C-271.34 100.67 -270.68 100.34 -270 100 C-269.814375 101.60875 -269.814375 101.60875 -269.625 103.25 C-269.10356064 106.37863615 -268.59911746 108.33480424 -267 111 C-267.4125 110.566875 -267.825 110.13375 -268.25 109.6875 C-270.06054505 107.94161728 -271.96474232 106.47380729 -274 105 C-275.98 105.99 -275.98 105.99 -278 107 C-278 108.65 -278 110.3 -278 112 C-276.68 112.33 -275.36 112.66 -274 113 C-274.33 114.98 -274.66 116.96 -275 119 C-275.66 119 -276.32 119 -277 119 C-276.49396008 121.16874252 -276.00016187 122.99967627 -275 125 C-276.32 124.67 -277.64 124.34 -279 124 C-278.95875 122.865625 -278.9175 121.73125 -278.875 120.5625 C-278.85816159 115.85616438 -279.82378223 111.53683996 -281 107 C-281.99 107 -282.98 107 -284 107 C-284.21914063 107.68964844 -284.43828125 108.37929687 -284.6640625 109.08984375 C-286.93037652 115.80587188 -289.78363108 121.30790195 -294 127 C-291.32752366 129.34287418 -291.32752366 129.34287418 -288 130 C-287.67 128.68 -287.34 127.36 -287 126 C-285.35 126 -283.7 126 -282 126 C-283.98 126.99 -283.98 126.99 -286 128 C-286 128.66 -286 129.32 -286 130 C-285.01 130.33 -284.02 130.66 -283 131 C-282.67 131.66 -282.34 132.32 -282 133 C-281.20335937 132.96519531 -280.40671875 132.93039062 -279.5859375 132.89453125 C-273.34534672 132.7351001 -269.55920796 133.03508909 -264 136 C-256.0052489 137.43115915 -247.1158525 134.55792625 -240 131 C-240.33 129.02 -240.66 127.04 -241 125 C-240.34 124.67 -239.68 124.34 -239 124 C-238.34 125.32 -237.68 126.64 -237 128 C-236.34 127.34 -235.68 126.68 -235 126 C-235.33 125.01 -235.66 124.02 -236 123 C-234.68 123 -233.36 123 -232 123 C-231.01 121.515 -231.01 121.515 -230 120 C-228.68 120.66 -227.36 121.32 -226 122 C-227.98 124.64 -229.96 127.28 -232 130 C-230.0509375 130.185625 -230.0509375 130.185625 -228.0625 130.375 C-225.84765625 130.5859375 -225.84765625 130.5859375 -224 131 C-223.67 131.66 -223.34 132.32 -223 133 C-221.68 132.67 -220.36 132.34 -219 132 C-219.66 131.01 -220.32 130.02 -221 129 C-219.906875 129.37125 -218.81375 129.7425 -217.6875 130.125 C-216.470625 130.41375 -215.25375 130.7025 -214 131 C-213.01 130.34 -212.02 129.68 -211 129 C-211 128.01 -211 127.02 -211 126 C-208.03 126 -205.06 126 -202 126 C-202 125.34 -202 124.68 -202 124 C-201.236875 124.515625 -200.47375 125.03125 -199.6875 125.5625 C-198.800625 126.036875 -197.91375 126.51125 -197 127 C-193.95317211 126.32836545 -193.95317211 126.32836545 -192.83203125 124.22265625 C-192.49558594 123.50980469 -192.15914062 122.79695313 -191.8125 122.0625 C-191.46832031 121.35222656 -191.12414062 120.64195312 -190.76953125 119.91015625 C-189.87544038 118.03403704 -189.87544038 118.03403704 -190 116 C-191.32 116.33 -192.64 116.66 -194 117 C-193 114 -193 114 -191.15234375 113.05078125 C-190.42144531 112.80714844 -189.69054687 112.56351562 -188.9375 112.3125 C-188.20402344 112.06113281 -187.47054687 111.80976563 -186.71484375 111.55078125 C-186.14894531 111.36902344 -185.58304688 111.18726563 -185 111 C-185.66 110.34 -186.32 109.68 -187 109 C-188.093125 109.45375 -189.18625 109.9075 -190.3125 110.375 C-190.92738281 110.63023437 -191.54226563 110.88546875 -192.17578125 111.1484375 C-194.26533932 112.06806692 -194.26533932 112.06806692 -197 114 C-195.54368932 109.38834951 -195.54368932 109.38834951 -193.25 107.75 C-190.52200506 106.84066835 -187.84070346 106.44560054 -185 106 C-182.64677864 105.38920411 -180.32938806 104.69881642 -178 104 C-178 103.01 -178 102.02 -178 101 C-177.01 101.33 -176.02 101.66 -175 102 C-175.33 103.98 -175.66 105.96 -176 108 C-177.485 108.495 -177.485 108.495 -179 109 C-178.67 110.32 -178.34 111.64 -178 113 C-179.485 113.495 -179.485 113.495 -181 114 C-179.35 114.33 -177.7 114.66 -176 115 C-176 115.66 -176 116.32 -176 117 C-177.65 116.67 -179.3 116.34 -181 116 C-180.67 116.99 -180.34 117.98 -180 119 C-179.34 119.33 -178.68 119.66 -178 120 C-178.165 120.886875 -178.33 121.77375 -178.5 122.6875 C-178.92995757 125.53596892 -179.08441035 128.13004802 -179 131 C-174.14533714 130.55866701 -170.51449983 128.26886275 -167 125 C-166.67 124.01 -166.34 123.02 -166 122 C-167.32 122 -168.64 122 -170 122 C-170 122.66 -170 123.32 -170 124 C-171.32 123.34 -172.64 122.68 -174 122 C-172.515 121.01 -172.515 121.01 -171 120 C-170.67 119.01 -170.34 118.02 -170 117 C-166.04 117.495 -166.04 117.495 -162 118 C-162 118.66 -162 119.32 -162 120 C-161.01 120 -160.02 120 -159 120 C-158.67 120.99 -158.34 121.98 -158 123 C-155.55796243 124.10904763 -154.39141594 124.13663975 -151.8515625 123.25 C-147.12293201 120.59533025 -143.74576995 117.98408988 -140.4140625 113.703125 C-138.96763647 111.96102072 -137.46376121 110.64743773 -135.6875 109.25 C-132.78061393 107.2158618 -132.78061393 107.2158618 -132 104 C-132.39397335 101.36195411 -132.39397335 101.36195411 -133 99 C-131.35 98.67 -129.7 98.34 -128 98 C-128.33 97.01 -128.66 96.02 -129 95 C-132.54518884 96.39759905 -132.54518884 96.39759905 -136 98 C-135 95 -135 95 -132 93 C-132 92.01 -132 91.02 -132 90 C-128.59937986 91.40715316 -127.10770302 93.02868228 -125 96 C-123.20620902 95.55005243 -121.41501072 95.08975857 -119.625 94.625 C-118.62726563 94.36976563 -117.62953125 94.11453125 -116.6015625 93.8515625 C-113.87458985 93.17595681 -113.87458985 93.17595681 -112 91 C-111.3574765 88.93125966 -111.3574765 88.93125966 -111 87 C-110.34 87 -109.68 87 -109 87 C-108.87625 87.886875 -108.7525 88.77375 -108.625 89.6875 C-106.44247426 94.13649478 -103.77317767 94.89820334 -99.3125 96.7265625 C-96.62893548 98.20433621 -95.94060864 99.11836659 -95 102 C-95.24663296 106.60381523 -95.84775822 109.57365024 -99 113 C-98.67 113.66 -98.34 114.32 -98 115 C-93.21109695 110.77087665 -93.21109695 110.77087665 -89.875 105.4375 C-90.10635644 100.92604943 -91.99692941 97.97441143 -95.1875 94.875 C-98.12826982 92.91448678 -101.07759753 91.49364315 -104.328125 90.125 C-106 89 -106 89 -106.734375 86.875 C-106.86585938 85.946875 -106.86585938 85.946875 -107 85 C-106.01 85 -105.02 85 -104 85 C-103.67 85.99 -103.34 86.98 -103 88 C-100.29491786 89.61247567 -97.49919481 90.93574498 -94.6640625 92.3046875 C-91.6634457 94.21417092 -90.76940091 95.98602049 -89 99 C-86.96526545 99.44085915 -84.92657781 99.86835416 -82.875 100.22265625 C-79.05347574 101.25592164 -75.74493083 102.91435191 -72.25 104.75 C-71.61223633 105.07331299 -70.97447266 105.39662598 -70.31738281 105.72973633 C-64.72858248 108.74151126 -60.26918962 112.89064333 -58 119 C-56.788202 127.03168441 -58.89426229 134.0286997 -63.14453125 140.83203125 C-69.68883827 149.27438501 -79.58192242 155.29933387 -88.75 160.5 C-94.58194738 163.81824041 -98.52842667 167.45249279 -102.84765625 172.6484375 C-116.11062212 187.13901001 -141.04610619 192.01536873 -159 198 C-159 197.34 -159 196.68 -159 196 C-157.35 195.34 -155.7 194.68 -154 194 C-154.33 192.68 -154.66 191.36 -155 190 C-155.59425781 190.51949219 -156.18851562 191.03898438 -156.80078125 191.57421875 C-165.13334047 198.58497231 -172.94932364 202.63127477 -183.6796875 204.4140625 C-186.16262531 205.041067 -187.71468488 205.92671759 -189.8125 207.375 C-198.26572346 213.14088079 -209.05100666 214.63761533 -219 216 C-219 215.01 -219 214.02 -219 213 C-218.01 212.67 -217.02 212.34 -216 212 C-218.10419833 210.65827169 -218.10419833 210.65827169 -220.94140625 211.92578125 C-222.73384766 212.61220703 -222.73384766 212.61220703 -224.5625 213.3125 C-238.95928412 218.59410669 -253.78473834 220.71743621 -268.51953125 215.16796875 C-271 214 -271 214 -273.44921875 212.23828125 C-275.98087981 210.68033491 -275.98087981 210.68033491 -278.87109375 211.65625 C-279.90363281 212.0996875 -280.93617188 212.543125 -282 213 C-300.49635481 219.6103811 -320.10297047 223.90265756 -338.96875 215.7109375 C-344.53135231 212.65150623 -347.61658082 209.90673448 -350 204 C-350.53192554 201.63177499 -350.80163433 199.42997947 -351 197 C-350.01 196.67 -349.02 196.34 -348 196 C-347.84144531 196.58007812 -347.68289063 197.16015625 -347.51953125 197.7578125 C-345.72776636 203.75676013 -343.85038828 208.68467841 -338.2265625 212.06640625 C-334.95164185 213.60713896 -333.50353315 214.16784438 -330 213 C-330.928125 212.319375 -331.85625 211.63875 -332.8125 210.9375 C-336.13684481 208.09255243 -338.14411509 205.33063135 -339 201 C-339.2308531 196.32137711 -339.17524643 191.67972871 -339 187 C-339.95084473 187.02356567 -339.95084473 187.02356567 -340.92089844 187.04760742 C-371.59159837 187.70770149 -371.59159837 187.70770149 -382.25 177.9375 C-384.11024631 174.81494369 -384.36742656 172.93090257 -384.8125 169.375 C-385.23361806 165.5183197 -385.23361806 165.5183197 -387.60546875 162.7265625 C-389.3683101 162.05050376 -391.18461196 161.5186823 -393 161 C-395.71092124 156.93361814 -395.64605131 153.77616504 -395 149 C-392.40936864 141.70468432 -392.40936864 141.70468432 -389 140 C-389.28875 140.556875 -389.5775 141.11375 -389.875 141.6875 C-392.49999968 147.08333267 -393.81428173 150.99467227 -393 157 C-391.60314994 159.6469872 -391.60314994 159.6469872 -389 161 C-383.63285299 161.42492638 -379.82066056 160.48305939 -374.875 158.4375 C-374.23554443 158.17372559 -373.59608887 157.90995117 -372.93725586 157.63818359 C-366.38540324 154.86751974 -360.17635363 151.52041742 -354 148 C-356.00025267 146.70647344 -356.00025267 146.70647344 -358.2578125 147.7421875 C-359.20398438 148.11601562 -360.15015625 148.48984375 -361.125 148.875 C-368.69007151 151.5439425 -376.06010654 151.79847986 -384 152 C-382.92674266 142.8032949 -380.32530425 138.66976037 -373.37109375 132.76953125 C-361.20981636 123.15083685 -346.36300803 116.62758283 -332 111 C-332.309375 110.34 -332.61875 109.68 -332.9375 109 C-334.24960255 105.29523985 -334.60264135 101.90736009 -335 98 C-336.65 97.34 -338.3 96.68 -340 96 C-340.45375 96.804375 -340.9075 97.60875 -341.375 98.4375 C-343 101 -343 101 -345 102 C-342.44293905 93.59567382 -338.20211785 88.12752193 -332 82 C-331.45601563 81.43410156 -330.91203125 80.86820312 -330.3515625 80.28515625 C-320.79952264 71.14526024 -308.58894722 67.63943568 -295.71875 67.70703125 C-290.08745136 68.15067347 -285.19760096 69.87758172 -280 72 C-279.06285156 72.37382812 -278.12570312 72.74765625 -277.16015625 73.1328125 C-276.44730469 73.41898437 -275.73445312 73.70515625 -275 74 C-275.309375 73.236875 -275.61875 72.47375 -275.9375 71.6875 C-277.89603885 66.7335488 -278.08640882 63.27093814 -278 58 C-317.38288742 61.3974674 -366.08214901 82.95500998 -396 109 C-396.94101562 109.79664063 -397.88203125 110.59328125 -398.8515625 111.4140625 C-415.85629767 126.129539 -426.69237393 144.31081584 -435 165 C-435.3403125 165.72316406 -435.680625 166.44632813 -436.03125 167.19140625 C-442.03624831 180.50804601 -435.93784223 195.52596685 -431.14160156 208.28320312 C-422.83235089 229.43229246 -410.56356293 245.73305705 -389.61523438 255.06201172 C-369.84926061 263.41594724 -349.20801815 268.90167741 -328 272 C-326.80407227 272.17789063 -326.80407227 272.17789063 -325.58398438 272.359375 C-282.11321991 278.4301052 -236.80906659 273.20833787 -194 265 C-192.85096191 264.78005371 -191.70192383 264.56010742 -190.51806641 264.33349609 C-132.18434421 252.72039186 -51.49647628 222.03588272 -17 171 C-7.66723217 156.38952321 -1.5884377 139.35598121 -5.33203125 121.9609375 C-5.9078629 119.79791227 -5.9078629 119.79791227 -8 118 C-8.03738281 119.01578125 -8.07476562 120.0315625 -8.11328125 121.078125 C-9.0773621 142.9555498 -15.95273324 159.95322315 -32 175 C-32.75990234 175.71663818 -32.75990234 175.71663818 -33.53515625 176.44775391 C-58.34485064 199.44113755 -91.06017336 212.11758776 -121.70768738 225.24769592 C-125.875752 227.04120752 -129.96230225 228.9231947 -134 231 C-133 228 -133 228 -129.92749023 226.22583008 C-128.55950932 225.56333754 -127.18607605 224.91203469 -125.80859375 224.26953125 C-125.0710939 223.91541672 -124.33359406 223.56130219 -123.57374573 223.19645691 C-121.19946117 222.05883318 -118.8188172 220.93531721 -116.4375 219.8125 C-114.12104675 218.70920759 -111.80598589 217.60302967 -109.49093628 216.49679565 C-107.94851939 215.75995177 -106.40564936 215.02405573 -104.86233521 214.28909302 C-94.03001808 209.12325841 -83.22706691 203.85948434 -72.75 198 C-71.99823486 197.57976562 -71.24646973 197.15953125 -70.47192383 196.7265625 C-64.09563628 193.12236613 -57.95682911 189.26770086 -52 185 C-50.43378906 183.88044922 -50.43378906 183.88044922 -48.8359375 182.73828125 C-32.80637264 170.99750699 -17.31765466 156.15788465 -13 136 C-12.59924624 132.7602617 -12.32380042 129.56143215 -12.17578125 126.30078125 C-12 124 -12 124 -11 123 C-9.9468304 112.4277975 -13.50191975 106.01945507 -19.71484375 97.765625 C-31.03301602 84.06773446 -46.49360198 76.48500217 -62.29321289 69.16088867 C-75.72073279 62.91890081 -75.72073279 62.91890081 -79 58 C-84.52059628 62.43956697 -89.95919498 66.90640614 -95.1875 71.6875 C-106.51716095 81.9741128 -106.51716095 81.9741128 -113 84 C-110.5101174 79.23596469 -107.11136746 75.84229515 -103.3125 72.125 C-102.67965088 71.50077148 -102.04680176 70.87654297 -101.39477539 70.23339844 C-97.06482865 65.98623908 -92.71661239 61.81904809 -88 58 C-87.0615625 57.23429687 -86.123125 56.46859375 -85.15625 55.6796875 C-77.8176622 49.8042662 -70.15834019 44.79569207 -61.99658203 40.14306641 C-59.9856774 38.99180014 -57.99105115 37.81535984 -55.99609375 36.63671875 C-45.74007641 30.67389014 -35.11064386 25.77832748 -24.21386719 21.11010742 C-12.76969816 16.3376746 -12.76969816 16.3376746 -5 7 C-5 6.01 -5 5.02 -5 4 C-36.92611953 4 -77.53833105 36.79880971 -99.44921875 57.625 Z M-229 50 C-229 50.33 -229 50.66 -229 51 C-228.34926514 51.02505615 -227.69853027 51.0501123 -227.02807617 51.07592773 C-224.08101954 51.19193702 -221.1342787 51.31464115 -218.1875 51.4375 C-216.65125977 51.49647461 -216.65125977 51.49647461 -215.08398438 51.55664062 C-213.60961914 51.61948242 -213.60961914 51.61948242 -212.10546875 51.68359375 C-211.19949951 51.72025146 -210.29353027 51.75690918 -209.36010742 51.79467773 C-207 52 -207 52 -204 53 C-203.01 54.485 -203.01 54.485 -202 56 C-200.68 54.35 -199.36 52.7 -198 51 C-201.22701618 47.77298382 -204.40890797 48.02860123 -208.875 47.8125 C-215.63062742 47.86984828 -222.32857276 49.01554697 -229 50 Z M-235 54 C-235.33 54.66 -235.66 55.32 -236 56 C-235.36497559 56.08564209 -234.72995117 56.17128418 -234.07568359 56.25952148 C-231.17532581 56.65122583 -228.27516225 57.04435064 -225.375 57.4375 C-224.37597656 57.57220703 -223.37695312 57.70691406 -222.34765625 57.84570312 C-221.37441406 57.97783203 -220.40117187 58.10996094 -219.3984375 58.24609375 C-217.98667236 58.43643188 -217.98667236 58.43643188 -216.54638672 58.63061523 C-214.51140406 58.92581454 -212.48713537 59.29454002 -210.46875 59.6875 C-207.13533366 60.10945144 -205.64278421 58.94322368 -203 57 C-210.38442458 50.29998551 -225.809498 52.45255091 -235 54 Z M-244 61 C-244.33 61.66 -244.66 62.32 -245 63 C-243.97261719 62.97679687 -242.94523438 62.95359375 -241.88671875 62.9296875 C-234.45498782 62.8164181 -227.59316096 62.90536681 -220.33203125 64.7578125 C-217.39954056 65.06235927 -215.62594678 64.25933505 -213 63 C-213.33 62.34 -213.66 61.68 -214 61 C-223.54930799 58.41306372 -234.63708859 57.33625206 -244 61 Z M-200 60 C-200 63 -200 63 -200 63 Z M-259 65 C-260.98 67.97 -260.98 67.97 -263 71 C-262.67 71.66 -262.34 72.32 -262 73 C-259.87197454 70.69433317 -259.87197454 70.69433317 -258 68 C-258.33 67.01 -258.66 66.02 -259 65 Z M-257 72 C-250.09872134 72.21191234 -243.82496866 71.46513785 -237.0625 70.125 C-236.11826172 69.95097656 -235.17402344 69.77695313 -234.20117188 69.59765625 C-229.09660222 68.82382936 -229.09660222 68.82382936 -225 66 C-234.50841302 62.83052899 -250.00691443 64.4208075 -257 72 Z M-334 87 C-335.51941876 88.94742405 -336.74883108 90.86258643 -338 93 C-337.01 93.33 -336.02 93.66 -335 94 C-332.56869041 92.73191748 -332.56869041 92.73191748 -330 90.875 C-324.53214012 87.26333466 -319.09771852 84.39521893 -313 82 C-312.19691406 81.67902344 -311.39382813 81.35804688 -310.56640625 81.02734375 C-299.14901678 77.19779814 -285.76933606 78.31672702 -274 80 C-279.43185422 73.69204026 -286.78454063 70.40527773 -295.06640625 69.76171875 C-311.00971413 69.42325747 -322.89177775 75.79147778 -334 87 Z M-226.94921875 71.83984375 C-227.7074292 72.01547852 -228.46563965 72.19111328 -229.24682617 72.37207031 C-230.05224854 72.55866211 -230.8576709 72.74525391 -231.6875 72.9375 C-240.79865047 74.97025255 -249.68446916 75.76144607 -259 76 C-259.33 76.66 -259.66 77.32 -260 78 C-258.92069214 78.11275269 -258.92069214 78.11275269 -257.81958008 78.2277832 C-232.66613747 80.89151526 -232.66613747 80.89151526 -223.3203125 83.546875 C-220.76856537 84.04519599 -219.38865195 84.01336749 -217 83 C-214.68462405 80.18291805 -214.68462405 80.18291805 -215.1875 77 C-216.01060434 73.9608455 -216.4073408 72.72843947 -219 71 C-222.06827709 71 -224.07097608 71.14401633 -226.94921875 71.83984375 Z M-301 81 C-300.67 81.99 -300.34 82.98 -300 84 C-299.34 83.01 -298.68 82.02 -298 81 C-298.99 81 -299.98 81 -301 81 Z M-293 81 C-292.67 81.66 -292.34 82.32 -292 83 C-291.67 82.34 -291.34 81.68 -291 81 C-291.66 81 -292.32 81 -293 81 Z M-289.5625 83.1875 C-290.76051575 85.53144387 -291.616426 87.4108755 -292 90 C-292.99 90 -293.98 90 -295 90 C-294.34 87.69 -293.68 85.38 -293 83 C-296.66786393 84.50349377 -298.68910393 86.63728792 -301.25 89.625 C-301.95640625 90.44226563 -302.6628125 91.25953125 -303.390625 92.1015625 C-303.92171875 92.72804688 -304.4528125 93.35453125 -305 94 C-302.91576558 95.32016278 -302.91576558 95.32016278 -300.12890625 94.21484375 C-286.81129637 90.28005586 -286.81129637 90.28005586 -277 82 C-283.738996 80.43529311 -283.738996 80.43529311 -289.5625 83.1875 Z M-263 81 C-263 81.99 -263 82.98 -263 84 C-261.30466389 85.47242476 -261.30466389 85.47242476 -259.125 86.6875 C-258.40570313 87.12449219 -257.68640625 87.56148438 -256.9453125 88.01171875 C-255.06647818 89.15097774 -255.06647818 89.15097774 -253 89 C-254.26974972 84.58477891 -254.26974972 84.58477891 -257 81 C-260.08347826 80.83318891 -260.08347826 80.83318891 -263 81 Z M-252 82 C-251.34 84.64 -250.68 87.28 -250 90 C-242.63740707 90.22424141 -236.12950371 89.90120099 -229 88 C-229 86.68 -229 85.36 -229 84 C-229.99 84.495 -229.99 84.495 -231 85 C-230.67 85.66 -230.34 86.32 -230 87 C-230.99 87 -231.98 87 -233 87 C-233.66 85.68 -234.32 84.36 -235 83 C-236.32 83.33 -237.64 83.66 -239 84 C-238.67 85.32 -238.34 86.64 -238 88 C-240.31 86.02 -242.62 84.04 -245 82 C-245.99 82.495 -245.99 82.495 -247 83 C-247.65213292 85.02463255 -247.65213292 85.02463255 -248 87 C-248.7115625 85.7625 -248.7115625 85.7625 -249.4375 84.5 C-249.953125 83.675 -250.46875 82.85 -251 82 C-251.33 82 -251.66 82 -252 82 Z M-226 85 C-226 85.66 -226 86.32 -226 87 C-225.34 86.67 -224.68 86.34 -224 86 C-224.66 85.67 -225.32 85.34 -226 85 Z M-306 87 C-307.3606009 88.48636758 -307.3606009 88.48636758 -308.625 90.375 C-309.07101562 91.00148438 -309.51703125 91.62796875 -309.9765625 92.2734375 C-311.16996969 93.95222643 -311.16996969 93.95222643 -311 96 C-307.93600134 95.33029489 -307.93600134 95.33029489 -306.83203125 93.15234375 C-306.49558594 92.42144531 -306.15914062 91.69054687 -305.8125 90.9375 C-305.46832031 90.20402344 -305.12414062 89.47054687 -304.76953125 88.71484375 C-304.51558594 88.14894531 -304.26164063 87.58304687 -304 87 C-304.66 87 -305.32 87 -306 87 Z M-320.5078125 89.4609375 C-321.04148437 90.09257812 -321.57515625 90.72421875 -322.125 91.375 C-322.66382813 92.00148438 -323.20265625 92.62796875 -323.7578125 93.2734375 C-325.19467147 94.91608428 -325.19467147 94.91608428 -325 97 C-324.01 97 -323.02 97 -322 97 C-320.35 94.03 -318.7 91.06 -317 88 C-319.11052012 87.76804827 -319.11052012 87.76804827 -320.5078125 89.4609375 Z M-313 89 C-314.98 91.31 -316.96 93.62 -319 96 C-317.68 96.33 -316.36 96.66 -315 97 C-313.93224776 95.03533587 -312.93446535 93.03144641 -312 91 C-312.33 90.34 -312.66 89.68 -313 89 Z M-328 92 C-328.99 92.66 -329.98 93.32 -331 94 C-331 94.66 -331 95.32 -331 96 C-329.68 95.67 -328.36 95.34 -327 95 C-327.33 94.01 -327.66 93.02 -328 92 Z M-110 94 C-110.32423323 96.9888398 -110.32423323 96.9888398 -108.5625 98.6875 C-105.86831212 102.67489806 -105.67257916 106.88813556 -106.390625 111.51953125 C-106.8712579 113.69954478 -107.39797815 115.85063274 -108 118 C-103.54160545 114.46835039 -99.63266317 111.15563203 -97 106 C-96.74846741 103.34095531 -96.74846741 103.34095531 -98 101 C-101.54482581 97.45517419 -105.41073713 95.79971093 -110 94 Z M-246 99 C-247.92367623 101.8637779 -248.43615007 104.63433907 -249 108 C-249.66666667 110 -250.33333333 112 -251 114 C-249.30287793 115.30859649 -249.30287793 115.30859649 -247 116 C-243.18815547 114.09407773 -240.3198054 111.61698806 -237.3125 108.625 C-236.54550781 107.87476563 -235.77851563 107.12453125 -234.98828125 106.3515625 C-231.79232747 102.57167218 -231 99.94142553 -231 95 C-236.34409723 95 -241.29144281 96.49899583 -246 99 Z M-116 98 C-115.67 98.639375 -115.34 99.27875 -115 99.9375 C-113.45269441 104.67612336 -112.96241348 109.21286599 -114.734375 113.97265625 C-118.49552825 120.60918391 -124.52680483 125.7856074 -130 131 C-129.34 131.33 -128.68 131.66 -128 132 C-123.31931206 128.62014841 -118.93195089 125.25961347 -115 121 C-113.948125 119.88625 -113.948125 119.88625 -112.875 118.75 C-110.3507813 115.04781257 -108.65568304 111.46016951 -108 107 C-108.73679936 103.32295416 -110.33738292 100.66261708 -113 98 C-113.99 98 -114.98 98 -116 98 Z M-332 99 C-332.41890218 101.78938212 -332.41890218 101.78938212 -332 105 C-329.7495803 107.91790525 -329.7495803 107.91790525 -327 110 C-326.34 110 -325.68 110 -325 110 C-324.67 110.99 -324.34 111.98 -324 113 C-322.68 113 -321.36 113 -320 113 C-320 113.99 -320 114.98 -320 116 C-320.66 116.33 -321.32 116.66 -322 117 C-321.34 117.99 -320.68 118.98 -320 120 C-317.1284035 120.66790364 -317.1284035 120.66790364 -314 120 C-311.43750025 117.68767578 -311.43750025 117.68767578 -309 115 C-305.6875 113.1875 -305.6875 113.1875 -303 112 C-306.47736026 108.21965377 -306.47736026 108.21965377 -311 106 C-310.67 104.68 -310.34 103.36 -310 102 C-312.44579177 99.69074515 -313.59442134 99.00998186 -317.015625 98.92578125 C-318.61664063 99.11720703 -318.61664063 99.11720703 -320.25 99.3125 C-321.32765625 99.43238281 -322.4053125 99.55226563 -323.515625 99.67578125 C-324.33546875 99.78277344 -325.1553125 99.88976562 -326 100 C-326 101.32 -326 102.64 -326 104 C-325.34 104 -324.68 104 -324 104 C-324 104.99 -324 105.98 -324 107 C-324.99 107 -325.98 107 -327 107 C-327.66 104.69 -328.32 102.38 -329 100 C-328.34 99.67 -327.68 99.34 -327 99 C-328.65 99 -330.3 99 -332 99 Z M-121 100 C-122.87152846 102.8072927 -122.99114218 104.17125118 -122.8125 107.625 C-122.600241 115.20972153 -127.75836139 122.0302864 -132 128 C-125.63696524 125.27505573 -120.68737776 119.55663297 -116.9375 113.875 C-115.78924198 110.35367541 -115.590931 107.68162104 -116 104 C-117.22338275 101.55853994 -117.22338275 101.55853994 -119 100 C-119.66 100 -120.32 100 -121 100 Z M-88 102 C-87.03531974 104.40524759 -87.03531974 104.40524759 -83.5625 105.875 C-81.40597456 107.08389414 -80.08861052 107.89292895 -78.5 109.8125 C-77.72219241 113.21540819 -78.1136793 115.63198135 -79 119 C-80.6652667 120.66806546 -82.33211634 122.33455121 -84 124 C-85.30452671 126.07080357 -86.5533886 128.17752025 -87.75 130.3125 C-95.98196057 144.18516685 -109.62069745 150.5989222 -123.8125 157.0625 C-133.80273474 161.65620914 -141.96044527 166.80231278 -147 177 C-147 177.99 -147 178.98 -147 180 C-146.49750732 179.49863525 -145.99501465 178.99727051 -145.47729492 178.48071289 C-139.33688468 172.66012283 -132.92159876 169.04367128 -125.3125 165.4375 C-124.15927246 164.87305176 -123.00604492 164.30860352 -121.81787109 163.72705078 C-117.10870889 161.42593006 -112.38659195 159.16115177 -107.61328125 156.99609375 C-98.8703458 152.93302745 -92.66241885 147.83171798 -86 141 C-85.33355469 140.34257812 -84.66710937 139.68515625 -83.98046875 139.0078125 C-76.79143944 131.44553788 -69 119.58398386 -69 109 C-71.41242713 107.82379175 -73.82927691 106.6589044 -76.25 105.5 C-77.27287109 104.99919922 -77.27287109 104.99919922 -78.31640625 104.48828125 C-81.8520992 102.80625256 -84.01929286 102 -88 102 Z M-128 106 C-128.4125 106.721875 -128.825 107.44375 -129.25 108.1875 C-130.94729158 110.91529003 -131.85570229 111.74199106 -134.4375 113.4375 C-137.09464035 115.2052441 -138.09086109 116.14234904 -139.875 118.9375 C-143.14087325 123.64419969 -147.91285775 126.45642887 -153 129 C-153.70234105 131.1217782 -154.31159524 133.27467759 -154.875 135.4375 C-156.30923547 140.71420215 -157.984633 145.65895371 -160.140625 150.67578125 C-161.04494563 153.1215575 -161.46627947 155.42914789 -161.875 158 C-162.32421875 160.23828125 -162.32421875 160.23828125 -163 162 C-165.6875 163.1875 -165.6875 163.1875 -169 164 C-172.26746611 166.37078102 -175.14962172 169.14962172 -178 172 C-177.34 172.33 -176.68 172.66 -176 173 C-175.67 173.99 -175.34 174.98 -175 176 C-170.10526451 175.90010744 -167.79161199 175.21179526 -164.3125 171.6875 C-163.19806004 170.46764005 -162.09300633 169.23910124 -161 168 C-159.66666667 166.66666667 -158.33333333 165.33333333 -157 164 C-157.74105436 165.42136655 -158.49330632 166.83689734 -159.25 168.25 C-159.66765625 169.03890625 -160.0853125 169.8278125 -160.515625 170.640625 C-162.14442073 173.22955296 -163.60218568 175.09038932 -166 177 C-168.55859375 177.3359375 -168.55859375 177.3359375 -171.4375 177.375 C-180.03868208 178.46335596 -184.49168762 185.03666016 -189.65649414 191.40600586 C-191.02581481 193.03062782 -192.47798041 194.51876127 -194 196 C-188.02766081 198.68540431 -181.94089119 199.12963656 -175.6015625 197.3125 C-173.29666008 196.34201477 -171.16759319 195.24694877 -169 194 C-167.89011719 193.36384766 -167.89011719 193.36384766 -166.7578125 192.71484375 C-157.10763987 186.7210514 -150.34221556 178.50535354 -143.89306641 169.31665039 C-141.19661961 165.49526561 -138.40614945 162.21011207 -135 159 C-135.99 159 -136.98 159 -138 159 C-132.80495562 149.64568333 -123.43040176 143.75126194 -115 137.5 C-101.35066343 127.85584796 -101.35066343 127.85584796 -91 115 C-91.495 114.01 -91.495 114.01 -92 113 C-92.48726563 113.49628906 -92.97453125 113.99257812 -93.4765625 114.50390625 C-98.00176246 118.83987057 -102.43426423 121.89901722 -108.125 124.5 C-113.29902251 126.90151712 -116.86972362 129.35134324 -120.3671875 133.89453125 C-124.57041263 139.31447945 -129.77736877 144.01435705 -135 148.4375 C-142.72383643 155.10600036 -148.8311703 163.01641208 -154.890625 171.17578125 C-162.93587283 181.94747418 -171.62460572 188.9535436 -185 192 C-185 191.01 -185 190.02 -185 189 C-183.0509375 188.690625 -183.0509375 188.690625 -181.0625 188.375 C-173.27780596 186.64643014 -167.27651634 181.83193911 -162 176 C-161.45730469 175.40316406 -160.91460937 174.80632812 -160.35546875 174.19140625 C-152.87485719 166.89854552 -152.87485719 166.89854552 -149 158 C-149.66 158 -150.32 158 -151 158 C-146.96423199 151.74677704 -142.64562062 145.813898 -138 140 C-141.10330792 139.64999964 -141.10330792 139.64999964 -142.97265625 141.93359375 C-143.66230469 142.75988281 -144.35195313 143.58617187 -145.0625 144.4375 C-148.82186235 148.91093117 -148.82186235 148.91093117 -151 150 C-150.7215625 148.8553125 -150.7215625 148.8553125 -150.4375 147.6875 C-149.77180827 144.91032625 -149.77180827 144.91032625 -151 142 C-150.42636719 141.74992187 -149.85273438 141.49984375 -149.26171875 141.2421875 C-138.73548471 135.46093979 -129.41646614 121.94515521 -125 111 C-124.65987041 108.16309163 -124.65987041 108.16309163 -125 106 C-125.99 106 -126.98 106 -128 106 Z M-88 107 C-88.14975239 114.05651252 -88.14975239 114.05651252 -87 121 C-84.55519921 120.81171228 -84.55519921 120.81171228 -82 120 C-80.20198417 117.71161622 -79.98994938 116.4020248 -80.0625 113.5 C-81.30829103 110.17789059 -83.07437458 108.92663138 -86 107 C-86.66 107 -87.32 107 -88 107 Z M-300.56640625 112.8828125 C-301.03949219 113.58148438 -301.51257813 114.28015625 -302 115 C-304.0078125 116.1953125 -304.0078125 116.1953125 -306.125 117.125 C-309.20741886 118.35864868 -309.20741886 118.35864868 -311 121 C-305.6400004 123.41250727 -305.6400004 123.41250727 -300 125 C-300.33 125.66 -300.66 126.32 -301 127 C-300.34 127.99 -299.68 128.98 -299 130 C-296.41619823 130.25030977 -296.41619823 130.25030977 -294 130 C-294.309375 129.401875 -294.61875 128.80375 -294.9375 128.1875 C-296 126 -296 126 -297 123 C-296.01 122.67 -295.02 122.34 -294 122 C-292.54722054 120.24888609 -292.54722054 120.24888609 -291.3125 118.125 C-290.87550781 117.42632812 -290.43851563 116.72765625 -289.98828125 116.0078125 C-288.77919041 113.92437513 -288.77919041 113.92437513 -289 111 C-290.6026782 110.89175157 -292.20745748 110.81429355 -293.8125 110.75 C-295.15248047 110.68039063 -295.15248047 110.68039063 -296.51953125 110.609375 C-299.13557304 110.7417768 -299.13557304 110.7417768 -300.56640625 112.8828125 Z M-67 113 C-67.33 114.98 -67.66 116.96 -68 119 C-67.01 119 -66.02 119 -65 119 C-66.01177241 127.26082413 -67.276368 135.11962476 -70 143 C-64.58815057 139.59826608 -62.06843149 134.89291912 -60 129 C-59.21918571 124.73987724 -58.95388921 120.93068977 -61.0625 117.0390625 C-62.47844109 115.14874509 -62.47844109 115.14874509 -65 113 C-65.66 113 -66.32 113 -67 113 Z M-340.25 116.9375 C-340.94875244 117.24816406 -341.64750488 117.55882812 -342.36743164 117.87890625 C-355.78100487 123.97448509 -371.62927505 131.32347048 -380 144 C-380.94240924 146.75764351 -380.94240924 146.75764351 -381 149 C-377.98968256 149.93423645 -377.13349732 150.04449911 -374 149 C-372.37567863 146.94903109 -372.37567863 146.94903109 -370.8125 144.4375 C-361.22392809 130.46161051 -347.65805776 122.80252047 -332 117 C-332 117.99 -332 118.98 -332 120 C-333.175625 120.309375 -334.35125 120.61875 -335.5625 120.9375 C-349.24418185 125.51967465 -362.18465848 134.89882603 -370 147 C-369.67 147.66 -369.34 148.32 -369 149 C-358.96621143 145.87102246 -350.73337257 141.84642715 -342 136 C-343.32 135.01 -344.64 134.02 -346 133 C-345.67 131.35 -345.34 129.7 -345 128 C-342.0625 128.375 -342.0625 128.375 -339 129 C-338.505 129.99 -338.505 129.99 -338 131 C-332.70841026 129.59928507 -330.22521956 126.14512755 -327 122 C-327.99 121.01 -328.98 120.02 -330 119 C-329.01 118.67 -328.02 118.34 -327 118 C-327.66 116.68 -328.32 115.36 -329 114 C-333.39430342 114 -336.33519594 115.18266934 -340.25 116.9375 Z M-187 117 C-187 117.66 -187 118.32 -187 119 C-187.66 119 -188.32 119 -189 119 C-190.32 121.97 -191.64 124.94 -193 128 C-192.34 128.66 -191.68 129.32 -191 130 C-189.51450044 128.73657512 -188.03678811 127.4639897 -186.5625 126.1875 C-185.73878906 125.47980469 -184.91507812 124.77210938 -184.06640625 124.04296875 C-181.77835241 122.08890314 -181.77835241 122.08890314 -181 119 C-182.98 118.34 -184.96 117.68 -187 117 Z M-91 119 C-91.58720825 119.84292603 -91.58720825 119.84292603 -92.1862793 120.70288086 C-96.69294688 126.86339516 -101.6194371 131.15812943 -107.8125 135.5625 C-109.59444583 136.86493394 -111.37570437 138.16830877 -113.15625 139.47265625 C-113.99800781 140.08383301 -114.83976562 140.69500977 -115.70703125 141.32470703 C-122.63880473 146.38921189 -129.10010061 151.74845097 -135 158 C-134.34 158.33 -133.68 158.66 -133 159 C-129.20909508 157.63445898 -125.62406048 155.75561585 -122 154 C-120.99582031 153.52949219 -119.99164063 153.05898438 -118.95703125 152.57421875 C-112.1479392 149.30620691 -106.04026032 145.52773184 -100 141 C-99.10788818 140.33955688 -99.10788818 140.33955688 -98.19775391 139.66577148 C-94.64776954 136.89334501 -92.24851966 133.89166864 -90 130 C-90 129.34 -90 128.68 -90 128 C-90.99 128 -91.98 128 -93 128 C-92.484375 127.071875 -91.96875 126.14375 -91.4375 125.1875 C-89.59903754 122.07242053 -89.59903754 122.07242053 -91 119 Z M-164 120 C-163.67 121.65 -163.34 123.3 -163 125 C-162.01 124.67 -161.02 124.34 -160 124 C-160.66 122.68 -161.32 121.36 -162 120 C-162.66 120 -163.32 120 -164 120 Z M-69 120 C-69.60134766 121.21623047 -69.60134766 121.21623047 -70.21484375 122.45703125 C-76.25178717 134.21606616 -83.75359643 143.54611147 -94 152 C-92.00843597 153.26059572 -92.00843597 153.26059572 -89.6796875 152.46875 C-82.15546507 149.86985423 -75.82326813 146.7847829 -71.65625 139.72265625 C-68.54474542 133.04403392 -67.87642529 127.29090776 -68 120 C-68.33 120 -68.66 120 -69 120 Z M-326.3125 125.125 C-329.00297001 128.00317722 -331.51384215 130.9455775 -334 134 C-330.37723685 132.6744419 -327.36494652 131.05653045 -324.1875 128.875 C-323.39730469 128.33617187 -322.60710937 127.79734375 -321.79296875 127.2421875 C-321.20128906 126.83226562 -320.60960937 126.42234375 -320 126 C-320.66 125.67 -321.32 125.34 -322 125 C-322 124.34 -322 123.68 -322 123 C-324.27798852 122.77445824 -324.27798852 122.77445824 -326.3125 125.125 Z M-315 126 C-317.68299025 127.40864449 -320.15362715 128.85761073 -322.6875 130.5 C-323.76354492 131.18425049 -323.76354492 131.18425049 -324.86132812 131.88232422 C-329.95976456 135.18056341 -334.68187361 138.71028234 -339 143 C-334.8424204 143 -332.63137943 140.77489176 -329.4375 138.375 C-323.80577719 134.23743768 -318.08589026 130.449606 -312 127 C-312.99 126.67 -313.98 126.34 -315 126 Z M-311.02734375 131.3359375 C-311.81947266 131.82320312 -312.61160156 132.31046875 -313.42773438 132.8125 C-314.25595703 133.328125 -315.08417969 133.84375 -315.9375 134.375 C-316.76185547 134.88289062 -317.58621094 135.39078125 -318.43554688 135.9140625 C-321.65493576 137.90166246 -324.85160099 139.90106733 -328 142 C-327.67 144.31 -327.34 146.62 -327 149 C-326.01 148.13375 -325.02 147.2675 -324 146.375 C-314.55769231 138.27884615 -314.55769231 138.27884615 -310 136 C-309.67 136.99 -309.34 137.98 -309 139 C-308.01 138.67 -307.02 138.34 -306 138 C-306 138.99 -306 139.98 -306 141 C-306.680625 141.165 -307.36125 141.33 -308.0625 141.5 C-313.97436872 144.51882658 -318.87609703 150.75322654 -321 157 C-321.61888453 161.85824357 -322.04697789 165.62584152 -319 169.625 C-318.34 170.07875 -317.68 170.5325 -317 171 C-316.86464844 170.40574219 -316.72929687 169.81148437 -316.58984375 169.19921875 C-313.18320057 156.08262254 -304.61241898 144.94631066 -293.375 137.375 C-292.59125 136.92125 -291.8075 136.4675 -291 136 C-293.41292805 133.58707195 -294.14117362 133.76572986 -297.4375 133.625 C-301.75756966 133.25807101 -301.75756966 133.25807101 -303.9375 130.9375 C-304.288125 130.298125 -304.63875 129.65875 -305 129 C-307.63196444 129 -308.79245236 129.95369955 -311.02734375 131.3359375 Z M-186 129 C-189.76791108 131.20560648 -192.45885226 133.38205926 -195.25 136.75 C-208.89754099 152.80593058 -228.5080822 159.43145847 -247.59619141 166.68798828 C-251.53282221 168.20537846 -255.43198939 169.80225598 -259.32983398 171.41601562 C-276.48312141 178.47367661 -295.20084276 184.38265411 -313.48046875 177.65625 C-313.98191406 177.4396875 -314.48335937 177.223125 -315 177 C-315 178.65 -315 180.3 -315 182 C-315.66 181.67 -316.32 181.34 -317 181 C-317.40729228 178.67843403 -317.74438677 176.3431213 -318 174 C-318.66 174 -319.32 174 -320 174 C-322.96875939 168.26039852 -323.71312026 163.41808233 -323 157 C-322.12660449 154.50948791 -321.09656294 152.24724369 -319.875 149.91015625 C-318.79176868 147.89559505 -318.79176868 147.89559505 -319 145 C-329.52102631 155.55886647 -329.52102631 155.55886647 -334.28125 169.41015625 C-334.03370354 175.42347238 -331.30835865 179.90368585 -327 184 C-319.93157332 188.48961607 -311.0934264 188.70336846 -303 188 C-299.47605125 187.1463224 -296.05491675 186.1028807 -292.59765625 185.01171875 C-288.9088838 183.97437666 -285.36220297 183.40893717 -281.5625 182.9375 C-276.40146401 182.28806006 -272.66748204 181.19646214 -268 179 C-266.72769531 178.76410156 -265.45539063 178.52820313 -264.14453125 178.28515625 C-257.51984129 176.86543619 -251.58169345 173.83896929 -245.5 170.9375 C-244.24443819 170.34436931 -242.98882247 169.75135273 -241.7331543 169.15844727 C-238.14609055 167.45796306 -234.57161239 165.73270547 -231 164 C-230.11521973 163.57203125 -229.23043945 163.1440625 -228.31884766 162.703125 C-213.5501508 155.47503452 -200.02036177 146.42948756 -188.19921875 134.9609375 C-186.18473569 133.16471992 -184.46735532 132.05017869 -182 131 C-183.98 130.01 -183.98 130.01 -186 129 Z M-165 129 C-165.09796875 129.99 -165.1959375 130.98 -165.296875 132 C-166.11098686 139.41902862 -167.26498672 145.43152836 -171 152 C-170.67 152.66 -170.34 153.32 -170 154 C-166.535 153.505 -166.535 153.505 -163 153 C-161.82569926 149.7318568 -160.66188744 146.46007485 -159.5 143.1875 C-159.16613281 142.25873047 -158.83226562 141.32996094 -158.48828125 140.37304688 C-158.17246094 139.48037109 -157.85664063 138.58769531 -157.53125 137.66796875 C-157.23798828 136.84578857 -156.94472656 136.0236084 -156.64257812 135.17651367 C-155.85842475 132.89869346 -155.85842475 132.89869346 -156 130 C-158.97 129.67 -161.94 129.34 -165 129 Z M-242.4921875 136.1484375 C-247.36690904 139.74753098 -252.4026178 141.81763261 -258.375 142.6875 C-264.76199442 143.88576798 -269.42923335 148.63427709 -274 153 C-274 153.33 -274 153.66 -274 154 C-270.04 154.33 -266.08 154.66 -262 155 C-262 154.01 -262 153.02 -262 152 C-261.05125 152.061875 -260.1025 152.12375 -259.125 152.1875 C-249.79315681 152.07484193 -243.73336111 148.52956295 -236.8359375 142.44921875 C-234.56924707 139.42535726 -234.62696613 137.69303533 -235 134 C-234.34 133.67 -233.68 133.34 -233 133 C-233 133.66 -233 134.32 -233 135 C-230.36 134.67 -227.72 134.34 -225 134 C-227.38311022 131.61688978 -229.33660865 131.06372691 -232.66015625 130.703125 C-236.68571983 131.21388098 -239.34290495 133.73109829 -242.4921875 136.1484375 Z M-217.0625 139.75 C-219.02186668 141.83977509 -219.02186668 141.83977509 -220 144 C-215.54635845 142.37692993 -212.10472502 140.09301502 -208.28125 137.33984375 C-205.82766429 135.89878228 -203.80026316 135.3993333 -201 135 C-200.67 133.68 -200.34 132.36 -200 131 C-206.60192885 131 -212.39488494 135.17792092 -217.0625 139.75 Z M-173 134 C-174.20952554 137.12582732 -174.20952554 137.12582732 -175 140.6875 C-176.90321989 147.91973558 -179.14173292 154.1700795 -184 160 C-175.55846507 156.2482067 -172.1892136 150.10816507 -168.6875 141.9375 C-167.80707814 138.17569753 -167.8669347 134.85889381 -168 131 C-170.21062109 131 -171.47198621 132.57906294 -173 134 Z M-135.08203125 140.95703125 C-136.74347681 142.61847681 -138.38465509 144.29379194 -140 146 C-139.67 146.66 -139.34 147.32 -139 148 C-130.30552126 141.19821253 -130.30552126 141.19821253 -123 133 C-127.53985097 133 -131.92573648 137.9902326 -135.08203125 140.95703125 Z M-182.4921875 136.0390625 C-184.69970249 138.90997578 -185.66047251 142.1725271 -186.8125 145.5625 C-188.93974945 151.58460791 -191.39785902 156.85898953 -194.99609375 162.1796875 C-195.32738281 162.78039062 -195.65867187 163.38109375 -196 164 C-195.67 164.66 -195.34 165.32 -195 166 C-190.40215292 164.63307249 -189.27991944 163.12139284 -187 159 C-185.85841193 157.66303011 -184.71203595 156.33014244 -183.5625 155 C-179.23299455 149.56060015 -176 142.06888538 -176 135 C-179.44534267 134.66449965 -179.44534267 134.66449965 -182.4921875 136.0390625 Z M-232 139 C-234.35322796 141.90412546 -234.35322796 141.90412546 -236 145 C-236.66 145.99 -237.32 146.98 -238 148 C-232.91563242 146.56855497 -228.98088786 144.31565973 -224.625 141.4375 C-223.98433594 141.02564453 -223.34367188 140.61378906 -222.68359375 140.18945312 C-221.10093036 139.15852846 -219.54737905 138.08316534 -218 137 C-218 136.67 -218 136.34 -218 136 C-223.47416957 135.66484676 -227.20121835 136.2837085 -232 139 Z M-290 138 C-301.33372475 146.1592324 -309.97595829 155.6815719 -314.71484375 168.921875 C-315.08131431 171.59259198 -314.45948744 172.77236127 -313 175 C-310.3794668 176.69066658 -309.17370278 177 -306 177 C-305.92523438 176.12859375 -305.85046875 175.2571875 -305.7734375 174.359375 C-304.30623272 161.06822582 -300.01653033 151.86324112 -290 143 C-288.99323586 142.00681021 -287.9907556 141.00915972 -287 140 C-287.66 140 -288.32 140 -289 140 C-289.33 139.34 -289.66 138.68 -290 138 Z M-291.12890625 146.57421875 C-296.69349653 151.71555161 -301.73257676 159.43916482 -303 167 C-303.06688591 168.91561254 -303.08531719 170.83335592 -303.0625 172.75 C-303.05347656 173.73484375 -303.04445313 174.7196875 -303.03515625 175.734375 C-303.02355469 176.48203125 -303.01195312 177.2296875 -303 178 C-301.68 178 -300.36 178 -299 178 C-298.84144531 177.31035156 -298.68289063 176.62070312 -298.51953125 175.91015625 C-294.61201502 160.17214891 -285.17946416 150.3079153 -273 140 C-279.22566733 137.50378971 -286.23168879 142.95297354 -291.12890625 146.57421875 Z M-281 150 C-282.83769689 151.93544673 -284.40558821 153.85579104 -286 156 C-285.01 156.33 -284.02 156.66 -283 157 C-282.34 157.66 -281.68 158.32 -281 159 C-280.57589844 158.41992188 -280.15179688 157.83984375 -279.71484375 157.2421875 C-275.87194201 152.12394914 -272.00753555 147.98558952 -267 144 C-267.33 143.01 -267.66 142.02 -268 141 C-272.74951586 141 -277.58661142 146.97516718 -281 150 Z M-189 142 C-190.00353516 142.89138672 -190.00353516 142.89138672 -191.02734375 143.80078125 C-200.15675695 151.68026137 -210.01213618 158.12740307 -220.29492188 164.39990234 C-221.02775391 164.84930176 -221.76058594 165.29870117 -222.515625 165.76171875 C-223.18368164 166.16737061 -223.85173828 166.57302246 -224.54003906 166.9909668 C-225.26271973 167.49043823 -225.26271973 167.49043823 -226 168 C-226 168.33 -226 168.66 -226 169 C-211.53896917 170.17968317 -211.53896917 170.17968317 -198.8828125 165.00390625 C-195.7089097 160.76026762 -195.7089097 160.76026762 -195.36328125 155.7109375 C-195.57339844 155.14632812 -195.78351563 154.58171875 -196 154 C-195.08154297 153.88978516 -195.08154297 153.88978516 -194.14453125 153.77734375 C-191.83424613 153.1831961 -191.83424613 153.1831961 -190.69921875 151.00390625 C-190.36535156 150.19824219 -190.03148437 149.39257812 -189.6875 148.5625 C-189.16736328 147.35787109 -189.16736328 147.35787109 -188.63671875 146.12890625 C-187.72758804 143.97419776 -187.72758804 143.97419776 -189 142 Z M-338.75 150.875 C-339.55026611 151.61786255 -339.55026611 151.61786255 -340.36669922 152.37573242 C-347.37645746 159.0570079 -353.19309437 166.27578646 -354.375 176.125 C-354.17523506 179.02551826 -354.17523506 179.02551826 -352.6875 181.375 C-348.40383616 183.96512232 -343.88084504 183.59539386 -339 183 C-336.24090523 182.05171122 -336.24090523 182.05171122 -334 181 C-334.5259375 179.329375 -334.5259375 179.329375 -335.0625 177.625 C-336.88445149 170.2061184 -335.80633168 163.46965269 -332.12109375 156.828125 C-330.4855011 154.16102618 -328.79453034 151.56361477 -327 149 C-327.99 149 -328.98 149 -330 149 C-330 148.01 -330 147.02 -330 146 C-334.13595003 146 -335.87916839 148.1907769 -338.75 150.875 Z M-357 152.5625 C-365.24563119 157.46089477 -374.00871262 160.73785492 -383 164 C-383.17842274 169.80560144 -382.76094869 172.44727264 -379 177 C-373.98447278 181.79746082 -369.9770018 184 -363 184 C-362.64543426 180.92709695 -362.47514596 178.05899777 -363 175 C-365.74047859 172.58967433 -365.74047859 172.58967433 -369 171 C-370.875 168.75 -370.875 168.75 -372 167 C-371.5601982 171.18840324 -371.5601982 171.18840324 -369.6875 174.875 C-367.78332024 176.36980013 -367.78332024 176.36980013 -364 176 C-364 176.99 -364 177.98 -364 179 C-370.75 177.25 -370.75 177.25 -373 175 C-373.4140625 172.6171875 -373.4140625 172.6171875 -373.625 169.875 C-373.69976562 168.96492188 -373.77453125 168.05484375 -373.8515625 167.1171875 C-373.90054688 166.41851562 -373.94953125 165.71984375 -374 165 C-373.38253906 164.8659375 -372.76507813 164.731875 -372.12890625 164.59375 C-369.57919384 163.88263755 -368.07939516 162.60985432 -366 161 C-365.01 160.67 -364.02 160.34 -363 160 C-363 160.99 -363 161.98 -363 163 C-364.32 163.33 -365.64 163.66 -367 164 C-367.33 165.32 -367.66 166.64 -368 168 C-364.90672105 170.97675459 -364.90672105 170.97675459 -361 172 C-360.79246094 171.40574219 -360.58492187 170.81148437 -360.37109375 170.19921875 C-358.07763399 164.02894834 -355.12471749 158.73190817 -351.48828125 153.25 C-349.99547083 151.09131449 -349.99547083 151.09131449 -349 149 C-352.19472472 149 -354.30009216 150.91568122 -357 152.5625 Z M-95.625 155.9375 C-96.4600708 156.15623779 -97.2951416 156.37497559 -98.15551758 156.6003418 C-106.93549559 159.04046574 -114.92516178 162.83334212 -123 167 C-113.77331 170.29363506 -100.39109588 163.83241796 -92 160 C-89.20797881 158.45449204 -86.63501342 156.80834254 -84 155 C-88.18725451 153.6042485 -91.49101367 154.84271598 -95.625 155.9375 Z M-275 155 C-278.52273754 159.51350747 -279.45732667 162.28341664 -279 168 C-273.07090494 167.4138281 -267.68419734 166.19595619 -262 164.4375 C-260.83791016 164.08655273 -260.83791016 164.08655273 -259.65234375 163.72851562 C-257.7664786 163.15809962 -255.8829791 162.57987197 -254 162 C-257.3891319 160.07284657 -260.69889758 159.30206748 -264.5 158.5 C-268.30110242 157.69793252 -271.6108681 156.92715343 -275 155 Z M-176.875 158.6875 C-187.47775773 167.84344557 -201.58752161 170.02647832 -215.11181641 170.87207031 C-228.90531213 171.75515408 -239.49977775 174.14460235 -251.71044922 180.84667969 C-265.70214584 187.89474695 -283.32360085 192.54975682 -299 192 C-299.66 191.67 -300.32 191.34 -301 191 C-303.3329866 190.95977609 -305.66706666 190.95679753 -308 191 C-301.48836534 196.94540556 -293.42265773 197.32496605 -285.015625 197.203125 C-278.96947076 196.79587109 -273.30314994 195.03030554 -267.5 193.375 C-266.57582275 193.11283691 -265.65164551 192.85067383 -264.69946289 192.58056641 C-259.08694592 190.96368244 -253.55387498 189.19603336 -248.03735352 187.27856445 C-233.50874778 182.22922932 -218.87060213 179.12899785 -203.5546875 177.6875 C-200.84537278 177.2603436 -200.84537278 177.2603436 -199.6328125 174.9375 C-199.42398438 174.298125 -199.21515625 173.65875 -199 173 C-197.7625 173.268125 -196.525 173.53625 -195.25 173.8125 C-188.03198524 174.60944169 -181.45803951 171.49165136 -175.6796875 167.328125 C-174.06089717 165.95182553 -172.51961417 164.48507748 -171 163 C-171.66 160.69 -172.32 158.38 -173 156 C-174.53416474 155.88618602 -174.53416474 155.88618602 -176.875 158.6875 Z M-292 164 C-292.67842139 165.39015811 -293.342229 166.7874527 -294 168.1875 C-294.37125 168.96480469 -294.7425 169.74210938 -295.125 170.54296875 C-296.06724579 173.18882858 -296.1583796 175.21350885 -296 178 C-289.7945858 177.51679152 -284.00054754 176.66681876 -278 175 C-278.66 173.68 -279.32 172.36 -280 171 C-281.65 171 -283.3 171 -285 171 C-285 170.34 -285 169.68 -285 169 C-284.01 168.67 -283.02 168.34 -282 168 C-283.093125 167.525625 -284.18625 167.05125 -285.3125 166.5625 C-285.92738281 166.29566406 -286.54226563 166.02882813 -287.17578125 165.75390625 C-288.75711021 165.10038058 -290.37675406 164.54108198 -292 164 Z M-106 168 C-106 168.99 -106 169.98 -106 171 C-105.01 170.67 -104.02 170.34 -103 170 C-102.67 169.01 -102.34 168.02 -102 167 C-104.0745356 166.8509288 -104.0745356 166.8509288 -106 168 Z M-122.75 170.125 C-124.05324219 170.26421875 -124.05324219 170.26421875 -125.3828125 170.40625 C-132.07012154 171.30994041 -135.98270921 173.58125858 -141 178 C-142.20795111 178.99785871 -143.41627309 179.99526867 -144.625 180.9921875 C-145.75199674 181.95078243 -146.87702239 182.91169986 -148 183.875 C-148.58394531 184.37257813 -149.16789062 184.87015625 -149.76953125 185.3828125 C-151.18148057 186.58644143 -152.59101011 187.79290805 -154 189 C-148.86350072 190.71216643 -143.83979643 187.86264487 -138.87792969 186.13256836 C-136.90812918 185.44899668 -134.93151554 184.78908515 -132.953125 184.13085938 C-123.6037442 180.94926096 -114.7222091 177.45891779 -109 169 C-113.66856328 169 -118.12753485 169.51855413 -122.75 170.125 Z M-276 172 C-272 173 -272 173 -272 173 Z M-180 172 C-180.99 172.66 -181.98 173.32 -183 174 C-182.67 174.99 -182.34 175.98 -182 177 C-181.01 176.01 -180.02 175.02 -179 174 C-179.33 173.34 -179.66 172.68 -180 172 Z M-360 176 C-360 178.97 -360 181.94 -360 185 C-358.68 184.67 -357.36 184.34 -356 184 C-356.99 181.36 -357.98 178.72 -359 176 C-359.33 176 -359.66 176 -360 176 Z M-197 179 C-198.39300182 180.95890881 -199.72245446 182.9639118 -201 185 C-211.39381859 196.42729487 -228.89654425 201.28929149 -243.83203125 202.03515625 C-250.71486762 201.95877459 -257.17651316 201.25442909 -263.1875 197.75 C-266.45116972 195.88111965 -268.33897402 195.93011238 -272 196.75 C-273.34144971 197.13974552 -274.67848082 197.54725732 -276 198 C-270.9001711 204.33082209 -264.34416535 206.49169029 -256.39453125 207.421875 C-232.75244834 208.27555101 -209.30658925 197.84514569 -192.09375 182.11328125 C-190.17647076 180.17811694 -188.56622052 178.22383234 -187 176 C-190.80884631 176 -193.78889984 177.01994517 -197 179 Z M-203.78515625 179.97265625 C-209.95739327 180.21615788 -212.60881751 182.01977796 -216.9921875 186.22265625 C-223.82662482 192.2725959 -233.32634297 193.37137592 -242 195 C-242 194.34 -242 193.68 -242 193 C-241.17757812 192.84144531 -240.35515625 192.68289063 -239.5078125 192.51953125 C-226.64752685 190.03499097 -226.64752685 190.03499097 -217 182 C-224.046225 182.47075261 -230.49280943 183.72663191 -237.25 185.75 C-238.15588867 186.01586914 -239.06177734 186.28173828 -239.99511719 186.55566406 C-251.16563179 189.80746843 -251.16563179 189.80746843 -262 194 C-262.33 194.66 -262.66 195.32 -263 196 C-249.85430337 202.04702045 -236.20272741 200.27327211 -222.7734375 195.96484375 C-215.36679836 193.14189989 -205.81785794 188.85110275 -201.6953125 181.75390625 C-201.46585938 181.17511719 -201.23640625 180.59632813 -201 180 C-201.92843016 180 -202.85683499 179.98687561 -203.78515625 179.97265625 Z M-331 184 C-333.74303573 184.41387499 -333.74303573 184.41387499 -336 186 C-337.89828837 191.38445316 -338.12253772 198.10748578 -336.05859375 203.42578125 C-334.09887899 206.78616987 -332.65660776 208.6498092 -329.1875 210.5 C-328.465625 210.665 -327.74375 210.83 -327 211 C-327.99 212.32 -328.98 213.64 -330 215 C-314.31968737 218.78279916 -297.33285976 215.18555181 -282.8046875 209.0859375 C-280.13347454 208.05167956 -277.85370592 207.25598027 -275 207 C-273.21875 207.890625 -273.21875 207.890625 -271.5 209.25 C-261.83405958 215.82210722 -250.07471178 215.79869895 -239 213.9375 C-223.67764925 210.87302985 -208.83853463 203.28769913 -198 192 C-201.5984828 193.34426082 -204.96523894 194.98661755 -208.36669922 196.76708984 C-216.70274126 201.10637164 -224.9563729 204.41760012 -234 207 C-234.85722656 207.24621094 -235.71445313 207.49242187 -236.59765625 207.74609375 C-247.11091505 210.29103954 -260.05067685 210.58467855 -270 206 C-271.1246524 205.25937525 -272.23162598 204.49066835 -273.3125 203.6875 C-275.82072317 201.69015081 -275.82072317 201.69015081 -278.375 202.4375 C-279.84754001 203.31401191 -281.3114401 204.20716016 -282.73828125 205.15625 C-291.90581924 211.18220683 -301.01227341 213.26201104 -312 212 C-316.84672146 210.58144738 -320.56198505 208.7262957 -324 205 C-321.02592804 205.63066258 -318.67895892 206.64691376 -316 208.0625 C-308.49877276 211.41960662 -300.94983637 210.91317321 -293.25 208.375 C-288.21234534 206.34239043 -284.10514213 203.52877547 -280 200 C-283.52888419 198.82370527 -286.76331977 198.77818163 -290.4375 198.75 C-291.75621094 198.72421875 -293.07492187 198.6984375 -294.43359375 198.671875 C-298.16195312 199.0149004 -299.31969435 199.53584803 -302 202 C-308.09239553 204.69198872 -314.11673522 205.01448205 -320.375 202.8125 C-323.24556733 200.8304416 -324.4858453 199.1124291 -326 196 C-321 199 -321 199 -318.625 200.6875 C-314.57458549 202.71270725 -311.09208809 202.63863742 -306.7734375 201.3203125 C-304.82888228 200.59883441 -302.91154945 199.80486293 -301 199 C-302.52997542 195.94004916 -305.42023421 195.02635729 -308.375 193.5625 C-309.31641846 193.09118652 -309.31641846 193.09118652 -310.27685547 192.61035156 C-314.9654935 190.33555988 -319.58493583 188.79043918 -324.6953125 187.703125 C-327 187 -327 187 -329.13671875 185.38671875 C-329.75160156 184.92910156 -330.36648438 184.47148437 -331 184 Z M-197 198 C-199.27144074 199.85432087 -199.27144074 199.85432087 -201 202 C-196.50832172 203.19600901 -192.26730207 202.9185704 -187.6875 202.5625 C-186.94693359 202.51029297 -186.20636719 202.45808594 -185.44335938 202.40429688 C-183.62847291 202.27549848 -181.81416675 202.13856738 -180 202 C-180 201.67 -180 201.34 -180 201 C-181.33804687 200.80083984 -181.33804687 200.80083984 -182.703125 200.59765625 C-183.87359375 200.42105469 -185.0440625 200.24445313 -186.25 200.0625 C-187.41015625 199.88847656 -188.5703125 199.71445312 -189.765625 199.53515625 C-193 199 -193 199 -195.28125 198.3125 C-195.8484375 198.209375 -196.415625 198.10625 -197 198 Z M-206 204 C-206.33 204.66 -206.66 205.32 -207 206 C-205.68 205.34 -204.36 204.68 -203 204 C-203.99 204 -204.98 204 -206 204 Z M-201.3125 207 C-202.63701172 207.556875 -202.63701172 207.556875 -203.98828125 208.125 C-204.98408203 208.558125 -204.98408203 208.558125 -206 209 C-202.21180727 210.43410153 -199.93478721 209.51009497 -196.25 208.0625 C-195.26515625 207.68222656 -194.2803125 207.30195313 -193.265625 206.91015625 C-192.14414062 206.45962891 -192.14414062 206.45962891 -191 206 C-191 205.67 -191 205.34 -191 205 C-194.95829688 204.77177387 -197.67851541 205.44949991 -201.3125 207 Z " fill="#B42A0C" transform="translate(469,133)"/>
<path d="M0 0 C0.99 0 1.98 0 3 0 C3.02578125 1.00417969 3.0515625 2.00835937 3.078125 3.04296875 C3.8017123 22.78864648 10.57820951 38.20789332 25 52 C38.33719261 63.77339779 54.26665705 72.14785694 71 78 C71.70672852 78.25233398 72.41345703 78.50466797 73.14160156 78.76464844 C88.21709481 84.07884192 103.89155209 87.69134128 119.88647461 88.54760742 C122.43044335 89.09213486 123.36128955 90.02848302 125 92 C123.33335335 93.66664665 121.3517726 93.15143912 119.06640625 93.15625 C84.29510409 92.79772522 44.35496874 76.82897525 19 53 C6.97894619 40.04693411 -1.16295527 25.65931927 -1.125 7.6875 C-1.12757812 6.45386719 -1.13015625 5.22023438 -1.1328125 3.94921875 C-1 1 -1 1 0 0 Z " fill="#B42A0C" transform="translate(34,304)"/>
<path d="M0 0 C2.0714124 0.5178531 4.13420076 1.03834307 6.1875 1.625 C6.785625 1.74875 7.38375 1.8725 8 2 C8.33 1.67 8.66 1.34 9 1 C16.46792039 -0.02874414 23.58160602 -0.856245 30.6640625 2.1015625 C34.76581491 3.67915958 39.08735849 4.42852856 43.375 5.3515625 C46 6 46 6 47 7 C49.008428 17.39281788 49.008428 17.39281788 46 22.1875 C42.57514167 24.25668524 39.97002201 24.76646929 36 25 C35.34 26.98 34.68 28.96 34 31 C32.54096742 30.69078116 31.08279278 30.37751201 29.625 30.0625 C28.40683594 29.80146484 28.40683594 29.80146484 27.1640625 29.53515625 C25 29 25 29 23 28 C22.505 30.475 22.505 30.475 22 33 C19 32 19 32 18 30.0625 C17.67 29.381875 17.34 28.70125 17 28 C16.01 27.34 15.02 26.68 14 26 C14 25.01 14 24.02 14 23 C16.64 23.33 19.28 23.66 22 24 C22 22.68 22 21.36 22 20 C22.99 20 23.98 20 25 20 C25 20.66 25 21.32 25 22 C27.27408669 21.40819673 29.54420092 20.80111282 31.8125 20.1875 C33.07707031 19.85105469 34.34164062 19.51460937 35.64453125 19.16796875 C38.71212328 18.10020389 40.11387601 17.55734249 42 15 C43.13055309 11.98519175 43.05609899 11.16829698 42 8 C41.30132812 8.02320313 40.60265625 8.04640625 39.8828125 8.0703125 C38.97273438 8.08835938 38.06265625 8.10640625 37.125 8.125 C35.76761719 8.15980469 35.76761719 8.15980469 34.3828125 8.1953125 C32 8 32 8 30 6 C29.195625 6.020625 28.39125 6.04125 27.5625 6.0625 C26.2940625 6.0315625 26.2940625 6.0315625 25 6 C24.566875 5.484375 24.13375 4.96875 23.6875 4.4375 C22.12062552 2.78363561 22.12062552 2.78363561 20.0390625 3.0234375 C18.01686221 3.28596877 16.00680287 3.63811752 14 4 C13.67 6.97 13.34 9.94 13 13 C12.34 13 11.68 13 11 13 C11 10.03 11 7.06 11 4 C10.34 4 9.68 4 9 4 C8.67 4.99 8.34 5.98 8 7 C8.66 7.33 9.32 7.66 10 8 C10 8.66 10 9.32 10 10 C9.01 10.33 8.02 10.66 7 11 C7.33 12.65 7.66 14.3 8 16 C5 15 5 15 3 12 C3 11.01 3 10.02 3 9 C2.34 9 1.68 9 1 9 C1.33 9.99 1.66 10.98 2 12 C2 12.66 2 13.32 2 14 C2.99 14.66 3.98 15.32 5 16 C5 16.99 5 17.98 5 19 C3.35 18.67 1.7 18.34 0 18 C-0.33 18.99 -0.66 19.98 -1 21 C-3.0625 21.6875 -3.0625 21.6875 -5 22 C-5.33 23.65 -5.66 25.3 -6 27 C-6.66 27 -7.32 27 -8 27 C-7 19.57142857 -7 19.57142857 -6 16 C-6.66 16 -7.32 16 -8 16 C-8 15.01 -8 14.02 -8 13 C-7.01 13 -6.02 13 -5 13 C-4.34 11.68 -3.68 10.36 -3 9 C-3.721875 9.495 -4.44375 9.99 -5.1875 10.5 C-8.14848659 12.07919285 -9.71253029 12.28178312 -13 12 C-12.67 11.01 -12.34 10.02 -12 9 C-11.34 9 -10.68 9 -10 9 C-10 7.68 -10 6.36 -10 5 C-9.401875 5.226875 -8.80375 5.45375 -8.1875 5.6875 C-7.465625 5.790625 -6.74375 5.89375 -6 6 C-4.22809091 4.64555699 -4.22809091 4.64555699 -3 3 C1.875 4.875 1.875 4.875 3 6 C3.33 5.34 3.66 4.68 4 4 C2.68 3.67 1.36 3.34 0 3 C0 2.01 0 1.02 0 0 Z M-1 5 C0 7 0 7 0 7 Z " fill="#B42A0C" transform="translate(297,196)"/>
<path d="M0 0 C0 0.66 0 1.32 0 2 C-1.54107422 2.74443359 -1.54107422 2.74443359 -3.11328125 3.50390625 C-17.94261581 10.73637071 -31.22052906 18.26370364 -41 32 C-41.99 31.67 -42.98 31.34 -44 31 C-36.52764668 15.73040842 -20.51217019 6.74006858 -5.609375 -0.13671875 C-3 -1 -3 -1 0 0 Z " fill="#B42A0C" transform="translate(129,238)"/>
<path d="M0 0 C0 0.99 0 1.98 0 3 C-8.82365744 5.42614476 -16.85495156 6.40411834 -26 6 C-26 5.01 -26 4.02 -26 3 C-22.23129437 2.30047331 -18.4597821 1.61745329 -14.6875 0.9375 C-13.61564453 0.73833984 -12.54378906 0.53917969 -11.43945312 0.33398438 C-9.89741211 0.05844727 -9.89741211 0.05844727 -8.32421875 -0.22265625 C-7.37635498 -0.39547119 -6.42849121 -0.56828613 -5.4519043 -0.74633789 C-3 -1 -3 -1 0 0 Z " fill="#B42A0C" transform="translate(315,372)"/>
<path d="M0 0 C1.34523286 0.28149146 2.67737944 0.6264177 4 1 C5.54029106 1.36010218 7.08200522 1.71416506 8.625 2.0625 C9.78902344 2.32740234 9.78902344 2.32740234 10.9765625 2.59765625 C12.983091 3.06500788 12.983091 3.06500788 15 3 C15 2.01 15 1.02 15 0 C16.32 0 17.64 0 19 0 C19 0.99 19 1.98 19 3 C18.34 3 17.68 3 17 3 C16.67 4.65 16.34 6.3 16 8 C14.68 8 13.36 8 12 8 C12 7.34 12 6.68 12 6 C8.04 6 4.08 6 0 6 C-0.33 4.35 -0.66 2.7 -1 1 C-0.67 0.67 -0.34 0.34 0 0 Z " fill="#B42A0C" transform="translate(294,241)"/>
<path d="M0 0 C0.99 0 1.98 0 3 0 C2.89300781 0.56847656 2.78601563 1.13695312 2.67578125 1.72265625 C1.80036451 7.36109307 1.97880449 10.93218818 5 16 C6.9056342 17.82341141 8.91317603 19.37691469 11 21 C11 21.66 11 22.32 11 23 C8.13990965 22.9158797 6.45351173 22.43181261 4.3671875 20.4453125 C0.32038128 15.73381347 -1.14009101 13.26817906 -1.125 6.9375 C-1.12757813 5.85339844 -1.13015625 4.76929688 -1.1328125 3.65234375 C-1 1 -1 1 0 0 Z " fill="#B42A0C" transform="translate(138,323)"/>
<path d="M0 0 C0 0.99 0 1.98 0 3 C-3.56045177 4.18681726 -6.43808337 4.09689832 -10.1875 4.0625 C-11.45980469 4.05347656 -12.73210937 4.04445313 -14.04296875 4.03515625 C-15.50669922 4.01775391 -15.50669922 4.01775391 -17 4 C-17.33 2.68 -17.66 1.36 -18 0 C-15.56288386 -0.19484938 -13.12562602 -0.38115178 -10.6875 -0.5625 C-9.99720703 -0.61857422 -9.30691406 -0.67464844 -8.59570312 -0.73242188 C-5.37487726 -0.96581505 -3.09672655 -1.03224218 0 0 Z " fill="#B42A0C" transform="translate(186,395)"/>
<path d="M0 0 C0.66 0 1.32 0 2 0 C1.39622642 7.36603774 1.39622642 7.36603774 -0.25 10 C-2.58483133 11.33418933 -4.35786868 11.21422686 -7 11 C-7 10.01 -7 9.02 -7 8 C-7.66 8 -8.32 8 -9 8 C-9 7.34 -9 6.68 -9 6 C-6 4 -6 4 -2 4 C-1.34 2.68 -0.68 1.36 0 0 Z " fill="#B42A0C" transform="translate(285,211)"/>
<path d="M0 0 C1.32 0 2.64 0 4 0 C3.814375 0.721875 3.62875 1.44375 3.4375 2.1875 C2.98004693 5.12826973 3.26483643 7.14103058 4 10 C2.35 10.33 0.7 10.66 -1 11 C-1 10.01 -1 9.02 -1 8 C-1.99 8 -2.98 8 -4 8 C-4 6.68 -4 5.36 -4 4 C-2.68 3.67 -1.36 3.34 0 3 C0 2.01 0 1.02 0 0 Z " fill="#B42A0C" transform="translate(246,244)"/>
<path d="M0 0 C0.66 0 1.32 0 2 0 C1.67 1.65 1.34 3.3 1 5 C0.38125 5.103125 -0.2375 5.20625 -0.875 5.3125 C-3.36526484 5.87525373 -3.36526484 5.87525373 -5 9 C-5.99 9 -6.98 9 -8 9 C-8 8.01 -8 7.02 -8 6 C-7.34 6 -6.68 6 -6 6 C-6 4.35 -6 2.7 -6 1 C-4.35 1.33 -2.7 1.66 -1 2 C-0.67 1.34 -0.34 0.68 0 0 Z " fill="#B42A0C" transform="translate(235,247)"/>
<path d="M0 0 C2.64 0 5.28 0 8 0 C8.33 1.32 8.66 2.64 9 4 C5.7 4 2.4 4 -1 4 C-0.67 2.68 -0.34 1.36 0 0 Z " fill="#B42A0C" transform="translate(205,394)"/>
<path d="M0 0 C3.35435922 1.38801071 5.11290303 2.88629 7 6 C7 6.99 7 7.98 7 9 C4.61435923 8.42415568 2.33317216 7.77772405 0 7 C0 4.69 0 2.38 0 0 Z " fill="#B42A0C" transform="translate(202,244)"/>
<path d="M0 0 C1.32 0 2.64 0 4 0 C4 0.99 4 1.98 4 3 C5.65 2.67 7.3 2.34 9 2 C9 2.99 9 3.98 9 5 C5.61608307 6.06351675 4.4195366 6.21442982 1.1875 4.5625 C0.465625 4.046875 -0.25625 3.53125 -1 3 C-0.67 2.01 -0.34 1.02 0 0 Z " fill="#B42A0C" transform="translate(313,234)"/>
<path d="M0 0 C3.8063457 0.67170806 7.35206816 1.72746564 11 3 C11 3.99 11 4.98 11 6 C7.1936543 5.32829194 3.64793184 4.27253436 0 3 C0 2.01 0 1.02 0 0 Z " fill="#B42A0C" transform="translate(287,228)"/>
<path d="M0 0 C2.475 0.495 2.475 0.495 5 1 C5.33 1.99 5.66 2.98 6 4 C5.01 4.495 5.01 4.495 4 5 C4.33 5.99 4.66 6.98 5 8 C3.68 7.67 2.36 7.34 1 7 C0.67 4.69 0.34 2.38 0 0 Z " fill="#B42A0C" transform="translate(260,225)"/>
<path d="M0 0 C0.99 0 1.98 0 3 0 C5.75 2.8125 5.75 2.8125 8 6 C7.67 6.99 7.34 7.98 7 9 C3.46352496 7.32482761 2.2088437 6.50719183 0.6875 2.8125 C0.460625 1.884375 0.23375 0.95625 0 0 Z " fill="#B42A0C" transform="translate(300,217)"/>
<path d="M0 0 C-0.37994168 2.75457718 -0.8073633 3.82020574 -2.875 5.75 C-5 7 -5 7 -8 7 C-6.4365884 2.43002763 -5.27390657 0 0 0 Z " fill="#B42A0C" transform="translate(368,268)"/>
<path d="M0 0 C1.98 0.99 1.98 0.99 4 2 C3.67 4.31 3.34 6.62 3 9 C2.01 8.67 1.02 8.34 0 8 C0 5.36 0 2.72 0 0 Z " fill="#B42A0C" transform="translate(265,233)"/>
<path d="M0 0 C0.99 0 1.98 0 3 0 C2.3125 1.9375 2.3125 1.9375 1 4 C-2.29427581 5.09809194 -3.66411172 5.11196276 -7 4 C-6.67 3.01 -6.34 2.02 -6 1 C-4.7934375 1.0309375 -4.7934375 1.0309375 -3.5625 1.0625 C-1.06645115 1.29633621 -1.06645115 1.29633621 0 0 Z " fill="#B42A0C" transform="translate(127,307)"/>
<path d="M0 0 C1.32 0 2.64 0 4 0 C4 0.99 4 1.98 4 3 C4.66 3 5.32 3 6 3 C6 3.66 6 4.32 6 5 C4.02 5 2.04 5 0 5 C-0.5625 3.0625 -0.5625 3.0625 -1 1 C-0.67 0.67 -0.34 0.34 0 0 Z " fill="#B42A0C" transform="translate(263,243)"/>
<path d="M0 0 C0.66 0.33 1.32 0.66 2 1 C2.625 4.0625 2.625 4.0625 3 7 C1.02 7 -0.96 7 -3 7 C-3 6.34 -3 5.68 -3 5 C-2.34 5 -1.68 5 -1 5 C-0.67 3.35 -0.34 1.7 0 0 Z " fill="#B42A0C" transform="translate(153,233)"/>
<path d="M0 0 C-1 3 -1 3 -4 5 C-4.33 5.99 -4.66 6.98 -5 8 C-5.66 8 -6.32 8 -7 8 C-7.25 5.6875 -7.25 5.6875 -7 3 C-4.51960083 0.51960083 -3.55547616 0 0 0 Z " fill="#B42A0C" transform="translate(313,211)"/>
<path d="M0 0 C1.32 0.66 2.64 1.32 4 2 C3.75 3.875 3.75 3.875 3 6 C0.9375 7.25 0.9375 7.25 -1 8 C-0.67 5.36 -0.34 2.72 0 0 Z " fill="#B42A0C" transform="translate(211,238)"/>
<path d="M0 0 C1.32 0.33 2.64 0.66 4 1 C4.33 2.32 4.66 3.64 5 5 C4.01 5.33 3.02 5.66 2 6 C2 5.34 2 4.68 2 4 C1.34 4 0.68 4 0 4 C0 2.68 0 1.36 0 0 Z " fill="#B42A0C" transform="translate(203,239)"/>
<path d="M0 0 C0.99 0 1.98 0 3 0 C3 0.66 3 1.32 3 2 C4.32 2.33 5.64 2.66 7 3 C7 3.66 7 4.32 7 5 C4.625 4.75 4.625 4.75 2 4 C0.6875 1.9375 0.6875 1.9375 0 0 Z " fill="#B42A0C" transform="translate(265,223)"/>
<path d="M0 0 C1.32 0 2.64 0 4 0 C3.34 1.32 2.68 2.64 2 4 C0.68 4 -0.64 4 -2 4 C-1.34 2.68 -0.68 1.36 0 0 Z " fill="#B42A0C" transform="translate(261,207)"/>
<path d="M0 0 C2.475 0.495 2.475 0.495 5 1 C4.34 2.32 3.68 3.64 3 5 C2.34 5 1.68 5 1 5 C0.67 3.35 0.34 1.7 0 0 Z " fill="#B42A0C" transform="translate(317,230)"/>
<path d="M0 0 C1.65 0 3.3 0 5 0 C5 0.66 5 1.32 5 2 C3.02 2.33 1.04 2.66 -1 3 C-0.67 2.01 -0.34 1.02 0 0 Z " fill="#B42A0C" transform="translate(191,260)"/>
<path d="M0 0 C1.32 0 2.64 0 4 0 C4 0.99 4 1.98 4 3 C2.68 3.33 1.36 3.66 0 4 C0 2.68 0 1.36 0 0 Z " fill="#B42A0C" transform="translate(298,237)"/>
<path d="M0 0 C0.99 0 1.98 0 3 0 C2.67 1.32 2.34 2.64 2 4 C1.01 4 0.02 4 -1 4 C-0.67 2.68 -0.34 1.36 0 0 Z " fill="#B42A0C" transform="translate(295,225)"/>
<path d="M0 0 C2.475 0.495 2.475 0.495 5 1 C5 1.66 5 2.32 5 3 C3.35 2.67 1.7 2.34 0 2 C0 1.34 0 0.68 0 0 Z " fill="#B42A0C" transform="translate(269,204)"/>
<path d="M0 0 C0.99 0 1.98 0 3 0 C2.67 1.65 2.34 3.3 2 5 C1.34 4.34 0.68 3.68 0 3 C0 2.01 0 1.02 0 0 Z " fill="#B42A0C" transform="translate(255,238)"/>
<path d="M0 0 C0.66 0.33 1.32 0.66 2 1 C1.67 1.99 1.34 2.98 1 4 C0.01 4 -0.98 4 -2 4 C-1.34 2.68 -0.68 1.36 0 0 Z " fill="#B42A0C" transform="translate(307,235)"/>
<path d="M0 0 C0.66 0 1.32 0 2 0 C2.33 0.99 2.66 1.98 3 3 C2.01 3.495 2.01 3.495 1 4 C0.34 3.67 -0.32 3.34 -1 3 C-0.67 2.01 -0.34 1.02 0 0 Z " fill="#B42A0C" transform="translate(321,246)"/>
<path d="M0 0 C0.99 0.99 1.98 1.98 3 3 C2.01 3.33 1.02 3.66 0 4 C0 2.68 0 1.36 0 0 Z " fill="#B42A0C" transform="translate(313,214)"/>
<path d="M0 0 C1.32 0.33 2.64 0.66 4 1 C3.67 1.66 3.34 2.32 3 3 C2.01 2.67 1.02 2.34 0 2 C0 1.34 0 0.68 0 0 Z " fill="#B42A0C" transform="translate(193,242)"/>
<path d="M0 0 C0.66 0.33 1.32 0.66 2 1 C1.67 1.99 1.34 2.98 1 4 C0.34 4 -0.32 4 -1 4 C-0.67 2.68 -0.34 1.36 0 0 Z " fill="#B42A0C" transform="translate(322,240)"/>
<path d="M0 0 C0.99 0.33 1.98 0.66 3 1 C2.67 1.99 2.34 2.98 2 4 C1.34 3.67 0.68 3.34 0 3 C0 2.01 0 1.02 0 0 Z " fill="#B42A0C" transform="translate(257,234)"/>
<path d="M0 0 C0.99 0 1.98 0 3 0 C2.67 0.99 2.34 1.98 2 3 C1.01 2.67 0.02 2.34 -1 2 C-0.67 1.34 -0.34 0.68 0 0 Z " fill="#B42A0C" transform="translate(274,221)"/>
<path d="M0 0 C0.99 0 1.98 0 3 0 C3 0.99 3 1.98 3 3 C2.01 2.67 1.02 2.34 0 2 C0 1.34 0 0.68 0 0 Z " fill="#B42A0C" transform="translate(323,244)"/>
<path d="M0 0 C0.66 0.33 1.32 0.66 2 1 C2 1.66 2 2.32 2 3 C1.01 3.33 0.02 3.66 -1 4 C-0.67 2.68 -0.34 1.36 0 0 Z " fill="#B42A0C" transform="translate(148,235)"/>
<path d="M0 0 C0.66 0 1.32 0 2 0 C2 0.99 2 1.98 2 3 C1.01 3 0.02 3 -1 3 C-0.67 2.01 -0.34 1.02 0 0 Z " fill="#B42A0C" transform="translate(204,235)"/>
<path d="M0 0 C0.66 0 1.32 0 2 0 C2 0.99 2 1.98 2 3 C1.01 2.67 0.02 2.34 -1 2 C-0.67 1.34 -0.34 0.68 0 0 Z " fill="#B42A0C" transform="translate(250,239)"/>
<path d="M0 0 C0.99 0 1.98 0 3 0 C3 0.66 3 1.32 3 2 C2.01 2 1.02 2 0 2 C0 1.34 0 0.68 0 0 Z " fill="#B42A0C" transform="translate(314,242)"/>
<path d="M0 0 C0.66 0 1.32 0 2 0 C2 0.99 2 1.98 2 3 C1.34 3 0.68 3 0 3 C0 2.01 0 1.02 0 0 Z " fill="#B42A0C" transform="translate(305,231)"/>
</svg>
